<?xml version="1.0" encoding="utf-8"?>
<!-- Generator: Adobe Illustrator 24.3.0, SVG Export Plug-In . SVG Version: 6.00 Build 0)  -->
<svg version="1.1" id="Layer_1" xmlns="http://www.w3.org/2000/svg" xmlns:xlink="http://www.w3.org/1999/xlink" x="0px" y="0px"
	 viewBox="0 0 24 30" style="enable-background:new 0 0 24 30;" xml:space="preserve">
<style type="text/css">
	.st0{fill:#FFFEAB;}
	.st1{fill:#060909;}
</style>
<g id="Layer_1_1_">
	<g id="Layer_2_1_">
		<path d="M15.2,26.3H5.6l2.3-11.2c-1.5-0.9-2.4-2.5-2.4-4.2c0-2.7,2.2-4.8,4.8-4.8c2.7,0,4.8,2.2,4.8,4.8c0,1.7-0.9,3.3-2.4,4.2
			L15.2,26.3z"/>
		<path class="st0" d="M12.4,14.6l-0.2,0.1l2.3,10.9h-8l2.3-10.9l-0.2-0.1c-1.4-0.7-2.2-2.2-2.2-3.7c0-2.3,1.9-4.2,4.2-4.2
			s4.2,1.9,4.2,4.2C14.6,12.4,13.7,13.9,12.4,14.6z"/>
	</g>
</g>
<g>
	<polygon class="st1" points="23,8.2 23,8.2 23,8.2 23,8.2 23,8.2 23,8.2 23,8.2 	"/>
	<path class="st1" d="M23,8.2C22.9,8.2,22.9,8.1,23,8.2C22.9,8.1,22.9,8.1,23,8.2C22.9,8.2,22.9,8.2,23,8.2L23,8.2L23,8.2L23,8.2
		L23,8.2z"/>
	<path class="st1" d="M23,8.2C23,8.3,23,8.3,23,8.2C23,8.3,23.1,8.3,23,8.2L23,8.2z"/>
	<polygon class="st1" points="20.5,3.7 20.5,3.7 20.6,3.7 	"/>
	<path class="st1" d="M9.3,5.2L9.3,5.2L9.3,5.2z"/>
	<path class="st1" d="M21.6,8.3L21.6,8.3L21.6,8.3z"/>
	<path class="st1" d="M22,7.7c-0.2,0-0.4,0-0.6-0.1c-0.6,0-1.3,0.2-1.9,0.3c-0.1,0-0.2,0-0.3-0.1c-0.4-0.4-0.9-0.6-1.4-0.8
		c0.1,0,0.2,0,0.3,0c0.3,0.2,0.7,0.2,1,0.1c0.2,0,0.4-0.1,0.6-0.1c-0.4,0-0.8,0.1-1.3,0c0.1,0,0.3,0,0.4,0c1-0.1,1.5-0.6,1.8-1.7
		l0,0c0.1-0.5,0.1-0.9-0.1-1.3c0.1,0.4,0.1,0.8,0,1.1c-0.1,0.4-0.2,0.7-0.4,1c-0.3,0.4-0.7,0.6-1.2,0.7c-0.3,0-0.6,0-0.8,0
		c-0.1,0-0.2,0-0.2-0.2c0.1,0,0.1,0,0.2,0c0.4,0.1,0.7,0.1,1.1,0c0.1,0,0.1,0,0.2-0.1c-0.3,0-0.7,0.1-1,0c0.1,0,0.1,0,0.2-0.1
		c0.3-0.1,0.6-0.2,1-0.4c0.4-0.2,0.6-0.6,0.8-1c0.1-0.1,0.1-0.3,0.1-0.4c0.1-0.4,0.1-0.7,0.1-1.1c0,0,0,0,0-0.1s0-0.2-0.1-0.3
		c-0.1,0,0,0.1,0,0.1c0.1,0.4,0.1,0.8-0.1,1.2c-0.1,0.5-0.3,1-0.8,1.3c-0.1,0-0.1,0.1-0.2,0.1l0,0l0,0c0.5-0.7,0.6-1.5,0.4-2.3l0,0
		c0.1,0.7,0,1.4-0.4,2.1c-0.2,0.3-0.4,0.5-0.8,0.5c-0.2,0-0.3,0-0.5,0H18C18,6,18,6,18.1,6c0.2,0,0.4-0.1,0.6-0.1
		c-0.2,0-0.4,0.1-0.6,0.1c0-0.2,0.1-0.3,0.3-0.3c0.1,0,0.2-0.1,0.3-0.1l0,0c-0.1,0-0.2,0.1-0.4,0.1c0-0.1,0.1-0.2,0.1-0.3V5.3
		c-0.1,0-0.1,0-0.1,0.1l-0.1,0.1c0,0,0,0.1-0.1,0c0,0,0,0,0-0.1c0.1-0.1,0.2-0.2,0-0.3l0,0c0.1-0.3,0.1-0.6,0.1-0.8
		c0-0.2,0.1-0.3,0.1-0.5c0-0.1,0-0.2,0-0.3c0,0.2,0,0.3-0.1,0.4c0-0.1-0.1-0.3-0.1-0.4l0,0c0,0.1,0,0.3,0,0.4c0,0.1,0,0.3-0.1,0.4
		s-0.2,0.3-0.3,0.3c-0.2,0-0.3,0.2-0.4,0.1c0,0,0,0-0.1,0l0,0c0,0,0.1,0,0.1-0.1c-0.2,0-0.3,0.1-0.5,0.1c-0.2,0.1-0.4,0-0.6-0.1
		c0,0,0,0,0-0.1s0-0.1,0.1-0.1c0.2,0,0.3-0.1,0.5-0.1c0.4-0.1,0.7-0.3,0.9-0.6c0,0,0.1-0.1,0-0.1c-0.1,0.1-0.1,0.1-0.1,0.2
		c-0.3,0.3-0.7,0.4-1.2,0.5c0,0-0.1,0-0.1-0.1l0,0c0-0.2,0-0.2,0.2-0.2c0.3,0,0.6-0.1,0.8-0.3l0,0c-0.3,0.2-0.6,0.3-1,0.2
		c0.2-0.1,0.4-0.2,0.6-0.4c0,0,0.1,0,0.1-0.1l0,0l0,0l0,0l0,0l0,0l0,0l0,0l0,0l0,0l0,0c0,0-0.1,0-0.1,0.1c-0.2,0.1-0.4,0.2-0.6,0.3
		c0-0.2,0-0.4-0.1-0.6l0,0c0,0.2,0.1,0.3,0.1,0.5c0,0.1,0,0.1-0.1,0.2c-0.1,0-0.1,0-0.2,0c-0.4-0.1-0.7-0.3-1-0.5S14.5,3,14.2,2.9
		c-0.1,0-0.1-0.1-0.1-0.1c-0.1-0.3-0.3-0.5-0.6-0.6c-0.4-0.3-1-0.1-1.4,0.3c-0.1,0.1-0.2,0.3-0.2,0.4c0.2-0.3,0.4-0.5,0.7-0.6
		c0.4-0.6,0.7-0.6,1-0.3c-0.5-0.2-0.9,0-1.3,0.3c0,0.1,0,0.1,0,0.1s0,0,0.1,0C12.6,2,13.1,2,13.5,2.3c-0.1,0-0.1,0-0.2,0
		c-0.5,0-0.9,0.1-1.2,0.5C12,2.9,11.9,3,11.9,3.1c-0.1,0.2-0.1,0.3-0.2,0.5c-0.1,0.2-0.2,0.4-0.1,0.7v0.1c0,0.1,0,0.1-0.2,0.1
		c-0.4,0-0.8,0.4-0.8,0.8c0,0.2,0,0.4,0.1,0.6c0,0,0,0,0,0.1c0,0.2,0,0.3,0.1,0.5c-0.1-0.1-0.2-0.1-0.3-0.3c-0.2-0.3-0.3-0.6-0.2-1
		c0-0.2,0-0.3,0.1-0.5c0-0.1,0-0.1,0.1-0.2l0,0l0,0l0,0c0,0,0,0.1-0.1,0.1C10.1,5.1,10,5.5,10.2,6v0.1l0,0v0.1l0,0
		C10,6.4,10,6.6,10,6.9C10,7,10,7,10,7C9.9,7,9.9,7,9.9,7C9.7,6.9,9.6,6.8,9.5,6.7c0,0,0-0.1-0.1-0.1V6.5c-0.2-0.3-0.2-0.7-0.1-1
		V5.4l0,0l0,0l0,0l0,0l0,0l0,0c0,0,0,0.1-0.1,0.1c0-0.1,0-0.2,0-0.2c0.1,0,0.1,0.1,0.1,0.2c0,0.4-0.1,0.7,0,1.1
		c0,0.2,0.1,0.3,0.2,0.5l0,0l0,0C9.2,6.9,9.1,6.6,9,6.3C8.9,6,9,5.6,9.2,5.3l0,0l0,0l0,0l0,0l0,0l0,0C9,5.4,8.9,5.6,8.9,5.9
		c-0.1,0.4,0,0.8,0.2,1.2c0.1,0.1,0.2,0.2,0.4,0.3c0.1,0.1,0.1,0.1,0,0.2c-0.1,0-0.2,0.2-0.4,0.3C8.7,8.3,8.3,8.7,7.9,9.1
		C7.5,9.5,7,9.9,6.6,10.2c-0.1,0.1-0.3,0.2-0.4,0.3S6.1,10.6,6,10.7c-0.1,0.1-0.1,0.1-0.2,0.2C5.8,11,5.7,11,5.6,11s-0.1,0-0.2,0.1
		c0,0.1,0,0.1-0.1,0.2c-0.1,0.1-0.1,0.2-0.2,0.1c-0.1,0-0.1,0-0.2,0.1s-0.1,0.2-0.3,0.1H4.5c-0.5,0-1,0-1.5,0.1l0,0
		c-0.1,0-0.2,0-0.2,0.1C2.8,12.1,3,12,3,12c0.2,0,0.4,0,0.6,0.1c0,0.1-0.1,0.1-0.2,0.1c-0.2,0.1-0.5,0.1-0.7,0.1
		c-0.1,0-0.2,0-0.1,0.1c0,0.1,0.1,0.1,0.2,0.1c0.2,0,0.4-0.1,0.7-0.1c0,0.1-0.1,0.1-0.1,0.1c-0.2,0.1-0.4,0.1-0.7,0.2
		c-0.1,0-0.2,0-0.2,0.2C2.5,13,2.6,13,2.7,13c0.2,0,0.5-0.1,0.7-0.1c0,0,0.1,0,0.2,0C3.3,13,3.1,13,2.8,13c0,0-0.1,0-0.1,0.1
		s0,0.1,0.1,0.1c0.4,0,0.8,0,1.2-0.1c-0.1,0.1-0.1,0.2-0.2,0.3c0,0-0.1,0.1,0,0.1h0.1c0.1,0,0.2-0.1,0.3-0.1
		c0.4-0.2,0.8-0.5,1.1-0.8C5.6,12.5,5.8,12.2,6,12c0.1-0.1,0.2-0.2,0.4-0.2c0.1,0,0.1-0.1,0.2-0.2c0.1-0.1,0.2-0.2,0.3-0.3
		C7.3,11,7.6,10.8,8,10.5c0.4-0.3,0.8-0.7,1.2-1.1c0.3-0.3,0.6-0.6,1-0.8c0.1-0.1,0.3-0.1,0.4-0.2c0,0,0,0,0.1,0
		c0.1,0.3,0.1,0.6,0.2,0.9c0,0.1,0,0.2-0.1,0.2l0,0c0.2,0,0.1,0.1,0.1,0.2c0.2,0.4,0.4,0.7,0.5,1.1c0,0.1,0,0.1,0.1,0.2
		c0,0.1,0,0.3,0.2,0.4c0.1,0,0.1,0.2,0.1,0.3c-0.1,0.4-0.3,0.8-0.6,1.1c0,0,0,0.1-0.1,0c0,0-0.1,0-0.1,0.1c-0.3,0.4-0.5,0.8-0.6,1.3
		c-0.2,0.7-0.2,1.5-0.1,2.2c0,0.1,0.1,0.2,0.2,0.3c0.1,0.1,0.2,0.1,0.3,0.1S11,16.9,11,17c0.4,0.8,0.8,1.7,1.1,2.5
		c0,0.1,0,0.1,0.1,0.2c0.2,0.2,0.1,0.5,0.1,0.7c0,0.1,0,0.2-0.2,0.3c-0.2,0.1-0.3,0.2-0.4,0.4c-0.4,0.5-0.7,1-0.9,1.6
		c-0.1,0.4-0.3,0.8-0.4,1.1c0,0.1-0.1,0.2-0.2,0.2c-0.5,0-0.7,0.1-0.9,0.6c-0.1,0.3-0.4,0.5-0.6,0.8c0,0,0,0-0.1,0
		c0,0.1-0.1,0.1-0.1,0.2c0.1,0.1,0.1,0.1,0.2,0c0.1-0.1,0.3-0.3,0.4-0.4l0.1-0.1C9.4,25,9.5,25,9.5,25.2s0,0.3,0,0.5s0,0.3-0.1,0.5
		c0,0.1-0.1,0.1-0.1,0.2c-0.1,0.2-0.1,0.3,0.1,0.5c0.2,0.2,0.3,0.4,0.5,0.6c0.1,0.1,0.2,0.1,0.3,0.1s0.3,0,0.4-0.1
		c0.1,0,0.2-0.1,0.2-0.1c0.1-0.1,0.1-0.2,0-0.3c-0.1-0.1-0.2-0.2-0.3-0.4c-0.1-0.1-0.1-0.3,0-0.4c0-0.1,0.1-0.2,0.2-0.2
		c0.2-0.3,0.3-0.5,0.4-0.8c0,0,0-0.1,0.1-0.1c0.2-0.3,0.4-0.7,0.6-1.1c0.5-0.8,1.1-1.5,1.6-2.3c0.1-0.2,0.2-0.3,0.4-0.4
		c0.4-0.4,0.5-0.9,0.4-1.4c-0.1-0.6-0.2-1.3-0.4-1.9V18c0-0.2-0.1-0.4-0.1-0.6c0.1,0.1,0.2,0.2,0.3,0.2c0.6,0.5,1.2,0.9,1.6,1.5
		c0.1,0.1,0.1,0.2,0,0.3c0,0,0,0.1-0.1,0.2c-0.1,0.3-0.1,0.7-0.2,1c0,0.3,0,0.5,0,0.7c0,0.5,0,0.9,0,1.4c0,0.4,0,0.7,0.1,1.1
		c0,0.1,0,0.1-0.1,0.1c0,0-0.1,0-0.1,0.1c-0.2,0.1-0.3,0.2-0.3,0.4c0,0.1,0,0.3,0,0.4c0,0.3,0,0.7-0.2,1c0,0.1,0,0.1,0,0.1
		c0.1,0,0.1,0,0.1-0.1c0.1-0.2,0.2-0.5,0.4-0.7c0.3,0.3,0.4,0.6,0.3,1c-0.1,0.3-0.1,0.6,0,1c0.1,0.1,0.3,0.2,0.4,0.4
		c0.2,0.1,0.3,0.2,0.5,0.2c0.2,0,0.3-0.1,0.4-0.2s0.2-0.2,0.1-0.4c-0.1-0.1-0.2-0.3-0.3-0.4c-0.1-0.2-0.3-0.3-0.3-0.5
		c0-0.3,0-0.6,0.1-0.8c0-0.2,0.1-0.4,0-0.6c0-0.2,0-0.4,0-0.5s0-0.3,0-0.4s0-0.2,0-0.2c0.1-0.2,0.1-0.5,0.1-0.8c0-0.1,0-0.2,0.1-0.3
		c0,0,0-0.1,0-0.2c-0.1-0.3,0-0.6,0.1-0.9c0.1-0.4,0.1-0.9,0.2-1.3c0-0.1,0-0.3,0.1-0.4c0-0.1,0-0.2,0-0.3c0-0.3,0.1-0.5,0.2-0.8
		c0-0.3,0-0.5-0.2-0.7c-0.3-0.4-0.6-0.9-0.9-1.3c-0.3-0.5-0.7-1-1.1-1.5c-0.1-0.1,0-0.2,0.1-0.2s0.1,0,0.2,0c0,0.1,0.1,0,0.1,0
		c0.6-0.1,1.1-0.4,1.5-0.9s0.5-1.1,0.4-1.7c0-0.3-0.2-0.5-0.3-0.8c-0.3-0.6-0.5-1.2-0.8-1.8c0,0-0.1-0.1,0-0.1
		c0.3,0.2,1.1,1.6,1.3,2.4c0-0.2-0.1-0.7-0.4-1.2c-0.2-0.4-0.4-0.7-0.6-1.1c0.2,0.1,1,1.2,1.2,1.8c-0.1-0.4-0.3-0.8-0.6-1.2
		c-0.2-0.4-0.5-0.7-0.8-1.1c0.2,0.1,0.4,0.2,0.6,0.3c0.5,0.2,1,0.5,1.5,0.6c0.5,0.2,1.1,0.1,1.6,0c0.2,0,0.4-0.1,0.6-0.1h0.1
		c0.2,0.8-0.2,1.4-0.9,1.6c0,0,0,0,0.1,0c0.7-0.2,1-0.8,1-1.4c0-0.1,0-0.1,0-0.2c0-0.1,0-0.1,0.1-0.1c-0.1,0-0.1,0-0.1-0.1
		c-0.1-0.4-0.4-0.7-0.7-0.9c-0.1,0-0.1-0.1-0.1-0.1c0-0.1,0.1,0,0.1-0.1c0.6-0.1,1.1-0.1,1.7,0l0,0c0.3,0,0.4,0.1,0.5,0.4
		c0.1,0.3,0.1,0.7,0,1c0,0-0.1,0.1,0,0.1l0,0c0,0-0.1,0-0.1,0.1c0,0-0.1,0-0.1,0.1l0,0c0,0,0,0,0,0.1c-0.1,0.1-0.3,0.3-0.5,0.4l0,0
		c0.2-0.1,0.4-0.2,0.5-0.4l0,0c0,0,0,0,0-0.1c0,0,0.1,0,0.1-0.1c0.1,0,0.1,0,0.1-0.1l0,0l0,0c0.2-0.3,0.2-0.5,0.2-0.8
		c0-0.2-0.1-0.4-0.2-0.6c-0.1-0.1,0,0,0.1-0.1c0,0,0,0,0.1,0l0,0l0,0l0,0c0,0,0,0-0.1,0l0,0c-0.2-0.1-0.4-0.4-0.6-0.5
		c-0.5-0.2-0.9-0.2-1.4,0c0,0-0.1,0-0.1,0.1c-0.3,0.2-0.4,0.2-0.6-0.2c0.7-0.1,1.3-0.4,2-0.3C21.7,7.7,21.8,7.7,22,7.7
		c0.2,0.1,0.4,0.2,0.6,0.3l0,0l0,0h0.1l-0.1-0.1C22.4,7.8,22.2,7.8,22,7.7z M9.5,7.1L9.5,7.1L9.5,7.1z M9.6,7.1
		C9.4,6.9,9.3,6.6,9.3,6.4c0,0,0,0.1,0.1,0.1c0,0,0,0.1,0.1,0.1c0,0,0,0.1,0.1,0.1c0,0.1,0,0.1,0.1,0.1C9.6,6.9,9.8,7,9.9,7.1
		C9.8,7.2,9.8,7.2,9.6,7.1z M10.4,6.7c-0.1,0.1-0.2,0.1-0.3,0.2c0-0.3,0-0.5,0-0.7V6.1c0,0,0.1,0,0.1,0.1c0.1,0.1,0.1,0.2,0.2,0.3
		c0,0,0.1,0.1,0.2,0.1C10.5,6.7,10.5,6.7,10.4,6.7z M10.8,6.3L10.8,6.3L10.8,6.3L10.8,6.3z M10.8,6.3c0.1,0,0.1,0.1,0.2,0.1
		C10.9,6.5,10.8,6.4,10.8,6.3z M11.1,6.3c-0.2-0.1-0.4-0.2-0.3-0.4c0-0.4,0.2-0.6,0.5-0.7C11.4,5.6,11.3,6,11.1,6.3z M11.3,5.1
		C11.3,5.1,11.3,5.2,11.3,5.1c-0.4,0.1-0.5,0.4-0.6,0.7l0,0c-0.1-0.3-0.1-0.6,0.1-0.9c0.2-0.3,0.4-0.4,0.8-0.4
		C11.4,4.7,11.3,4.9,11.3,5.1z M16.2,3.6c0.1,0,0.1,0,0.1,0.1c0,0.2,0,0.2-0.2,0.2c-0.1,0-0.3-0.1-0.4-0.1c0,0-0.1,0-0.1-0.1
		C15.8,3.6,16,3.6,16.2,3.6z M15.8,10.7c-0.1,0-0.2-0.1-0.2-0.2c-0.1-0.1-0.1-0.2-0.2-0.3C15.6,10.3,15.7,10.5,15.8,10.7z M15.8,9.9
		L15.8,9.9L15.8,9.9L15.8,9.9L15.8,9.9z M15.8,9.9L15.8,9.9L15.8,9.9L15.8,9.9L15.8,9.9z M15.4,10.2L15.4,10.2L15.4,10.2L15.4,10.2z
		 M15.7,9.8L15.7,9.8L15.7,9.8L15.7,9.8L15.7,9.8z M15.7,9.8L15.7,9.8L15.7,9.8L15.7,9.8L15.7,9.8z M15.8,3.5c-0.2,0-0.4,0-0.5-0.3
		C15.4,3.3,15.6,3.4,15.8,3.5z M15.4,10.4L15.4,10.4c-0.1,0-0.1-0.1-0.2-0.1c0,0,0-0.1-0.1-0.2C15.3,10.2,15.4,10.3,15.4,10.4z
		 M15.4,10.4L15.4,10.4L15.4,10.4z M15.1,10.9c0,0.4-0.1,0.7-0.4,1l0,0l0,0c0.1-0.2,0.2-0.3,0.3-0.5C15,11.3,15.1,11.1,15.1,10.9z
		 M14.6,11.7c0.1-0.5,0.1-0.9,0-1.4C14.9,10.5,14.9,11.3,14.6,11.7z M14.2,11.5c0.1-0.2,0.1-0.5,0.2-0.7c0.1,0.2,0.1,0.5,0.1,0.7
		v0.1l0,0l0,0c0,0.2-0.1,0.3-0.1,0.5c-0.1,0.2-0.2,0.2-0.4,0.3C14,12,14.1,11.8,14.2,11.5z M14.1,12.4L14,12.5
		C14,12.4,14,12.4,14.1,12.4z M13.5,2.3L13.5,2.3L13.5,2.3L13.5,2.3z M13.6,2.3C13.4,2.1,13.2,2,12.9,2c0.4-0.1,0.8,0,1,0.3
		C13.8,2.4,13.7,2.4,13.6,2.3z M16.7,11.1c0.2,0.4,0.3,0.8,0.4,1.3c0.1,0.6,0,1.1-0.4,1.6c-0.3,0.4-0.8,0.7-1.3,0.9
		c-0.1,0-0.1,0-0.2,0c0,0,0.1,0,0.1-0.1c0.7-0.3,1.2-0.9,1.3-1.6c0.1-0.2,0-0.4,0-0.7s0-0.7,0-1c0.2,0.3,0.3,0.7,0.4,1l0,0
		c-0.1-0.3-0.1-0.5-0.2-0.8s-0.3-0.5-0.3-0.8C16.6,11,16.6,11,16.7,11.1z M16.6,11.5L16.6,11.5L16.6,11.5L16.6,11.5L16.6,11.5z
		 M16.5,10.8L16.5,10.8L16.5,10.8L16.5,10.8z M16.3,10.3c0.1,0.1,0.1,0.3,0.2,0.4v0.1l0,0c-0.1,0-0.1-0.1-0.2-0.2
		C16.3,10.5,16.3,10.4,16.3,10.3c-0.1-0.1-0.1-0.1-0.1-0.2C16.2,10.2,16.3,10.2,16.3,10.3z M16.2,10.1L16.2,10.1L16.2,10.1
		L16.2,10.1C16.1,10.1,16.2,10.1,16.2,10.1z M16.4,12.2c0,0.1,0,0.2,0,0.3c-0.2,0.8-1,1.5-1.8,1.6l0,0c0.8-0.1,1.3-0.5,1.9-1.4
		c0,0.3,0,0.5-0.1,0.8c-0.3,0.6-0.7,1.1-1.4,1.3c-0.1,0-0.1,0-0.2,0c-0.1-0.2-0.3-0.4-0.5-0.5l-0.1-0.1l0,0c-0.1,0-0.1-0.1-0.1-0.2
		c0-0.1-0.1-0.2-0.2-0.3c-0.2-0.1-0.2-0.1-0.1-0.4c0-0.2,0.1-0.3,0.1-0.5c0-0.1,0-0.1,0.1-0.1c0.2-0.2,0.4-0.3,0.7-0.4
		c0.6-0.4,0.8-0.9,0.6-1.5l0,0l0,0c0.2,0.1,0.3,0.3,0.4,0.5c0.1,0.3,0.2,0.6,0.3,1l0,0c0-0.4-0.1-0.8-0.3-1.2c0.1,0,0.2,0.1,0.2,0.2
		C16.1,11.4,16.3,11.8,16.4,12.2z M15.8,10c0,0,0.1,0.1,0,0.2C15.8,10.1,15.8,10,15.8,10z M16.1,9.4L16.1,9.4L16.1,9.4L16.1,9.4
		L16.1,9.4z M16,4.3c-0.1,0-0.2-0.1-0.2-0.1c0.2,0,0.3,0,0.4,0C16.2,4.3,16.1,4.4,16,4.3z M16.5,9.5C16.5,9.6,16.4,9.5,16.5,9.5
		C16.4,9.5,16.4,9.5,16.5,9.5C16.4,9.5,16.5,9.5,16.5,9.5z M21.9,8.6c-0.1,0-0.2,0-0.3-0.1c-0.3-0.1-0.5-0.1-0.8-0.2
		c0.3,0,0.5,0,0.8,0.1C21.7,8.5,21.8,8.5,21.9,8.6z M21.6,8.3L21.6,8.3c0.1,0,0.1,0.1,0.2,0.2C21.7,8.4,21.7,8.4,21.6,8.3
		c-0.4,0-0.7-0.1-1.1-0.1C20.8,8,21.2,8,21.6,8.3z M18.9,8.1c0.2-0.1,0.2,0,0.2,0.1c0.1-0.1,0.1,0,0.4,0.2c-0.1,0.1-0.2,0.1-0.3,0
		C19.1,8.3,19,8.2,18.9,8.1z M19,8.5c-0.1,0-0.2,0-0.3,0C18.9,8.4,18.9,8.4,19,8.5z M19.1,8c0,0-0.1,0-0.1-0.1
		C19.1,7.9,19.1,8,19.1,8z M19,7.9c-0.1,0-0.1,0-0.1-0.1C18.9,7.9,19,7.9,19,7.9z M18.9,7.9c-0.1,0-0.1,0-0.1,0
		C18.8,7.8,18.9,7.8,18.9,7.9z M18.9,8c-0.1,0-0.2,0-0.3-0.1c-0.2-0.1-0.4-0.2-0.6-0.3C18.3,7.7,18.6,7.9,18.9,8z M18.8,8.4
		L18.8,8.4c-0.2,0.2-0.4,0.2-0.6,0.1c-0.4-0.2-0.7-0.4-1.1-0.6C17.8,8,18.3,8.1,18.8,8.4z M17.3,4.9h0.1C17.2,5,17.1,5,16.9,5
		C17,5,17.2,5,17.3,4.9z M17.6,8.7c-0.2,0-0.4-0.1-0.6-0.2C17.2,8.5,17.4,8.6,17.6,8.7z M18,4.4c0,0.1-0.1,0.3-0.1,0.4
		c-0.1,0.1-0.2,0.2-0.2,0.3l-0.1,0.1C17.7,4.9,17.8,4.6,18,4.4z M16.3,4.8c0.2,0,0.3,0,0.5,0C16.6,4.8,16.4,4.8,16.3,4.8z M16.5,4.9
		c0.2,0,0.4-0.1,0.6-0.2s0.4-0.2,0.6-0.3c-0.1,0.1-0.1,0.3-0.3,0.4h-0.1c-0.2,0-0.3,0.1-0.5,0.1C16.7,5,16.6,5,16.5,4.9z M17,5.7
		c-0.1,0-0.2,0-0.3-0.1C16.8,5.6,16.9,5.7,17,5.7z M16.7,8.9c0.1,0,0.1,0,0.2,0.1C16.8,9,16.8,8.9,16.7,8.9z M16.9,9
		c0.1,0,0.2,0,0.3,0.1C17.1,9.1,17,9,16.9,9z M20.5,9.5c0.1,0.3,0.1,0.3-0.2,0.3c-0.4,0-0.8,0.1-1.2,0c-0.5,0-1-0.2-1.4-0.4
		c-0.2-0.1-0.4-0.2-0.6-0.3l0,0c0.2,0.1,0.4,0.2,0.5,0.3c0.4,0.2,0.7,0.2,1.2,0.2c-0.6-0.2-1.1-0.4-1.6-0.8c0.2,0,0.5,0,0.7,0
		c0.1,0,0.3,0.1,0.4,0.1C18.8,9,19,9,19.3,8.8c0.1,0,0.1,0,0.1,0C19.5,9,19.6,9,19.6,9.1l0,0c0-0.1-0.1-0.2-0.1-0.3
		C20,8.9,20.3,9.1,20.5,9.5z M19.5,8.4c-0.1-0.1-0.2-0.2-0.3-0.3l0,0C19.4,8.2,19.5,8.3,19.5,8.4z"/>
	<path class="st1" d="M22.8,8C22.8,8,22.7,8,22.8,8C22.7,8,22.8,8.1,22.8,8C22.8,8.1,22.8,8.1,22.8,8L22.8,8z"/>
	<path class="st1" d="M22.8,8.1L22.8,8.1C22.8,8.1,22.9,8.1,22.8,8.1C22.9,8.1,22.9,8.1,22.8,8.1L22.8,8.1z"/>
	<path class="st1" d="M18,3.2L18,3.2L18,3.2L18,3.2L18,3.2z"/>
	<path class="st1" d="M18.6,5.4L18.6,5.4L18.6,5.4C18.6,5.4,18.7,5.4,18.6,5.4z"/>
	<path class="st1" d="M17.1,3L17.1,3L17.1,3L17.1,3z"/>
	<path class="st1" d="M9.3,5.2L9.3,5.2L9.3,5.2z"/>
	<path class="st1" d="M9.4,5.2L9.4,5.2L9.4,5.2L9.4,5.2z"/>
	<path class="st1" d="M9.4,5.1L9.4,5.1L9.4,5.1z"/>
	<path class="st1" d="M9.4,5.1L9.4,5.1L9.4,5.1z"/>
	<path class="st1" d="M9.4,5L9.4,5L9.4,5z"/>
	<path class="st1" d="M19.7,9.2C19.7,9.2,19.7,9.1,19.7,9.2C19.7,9.1,19.7,9.1,19.7,9.2L19.7,9.2z"/>
	<path class="st1" d="M20.6,3.9L20.6,3.9L20.6,3.9L20.6,3.9L20.6,3.9z"/>
	<path class="st1" d="M19.4,6.5h0.1C19.5,6.5,19.5,6.5,19.4,6.5z"/>
	<path class="st1" d="M14.5,11.6L14.5,11.6L14.5,11.6L14.5,11.6L14.5,11.6z"/>
</g>
</svg>
