<?xml version="1.0" encoding="utf-8"?>
<!-- Generator: Adobe Illustrator 24.3.0, SVG Export Plug-In . SVG Version: 6.00 Build 0)  -->
<svg version="1.1" id="Layer_2" xmlns="http://www.w3.org/2000/svg" xmlns:xlink="http://www.w3.org/1999/xlink" x="0px" y="0px"
	 viewBox="0 0 24 30" style="enable-background:new 0 0 24 30;" xml:space="preserve">
<style type="text/css">
	.st0{fill:#F3F132;}
	.st1{fill:#060909;}
	.st2{fill:#FFFFFF;}
</style>
<g id="Layer_1_2_">
	<g id="Layer_2_2_">
		<path d="M15.2,26.3H5.6l2.3-11.2c-1.5-0.9-2.4-2.5-2.4-4.2c0-2.7,2.2-4.8,4.8-4.8c2.7,0,4.8,2.2,4.8,4.8c0,1.7-0.9,3.3-2.4,4.2
			L15.2,26.3z"/>
		<path class="st0" d="M12.4,14.6l-0.2,0.1l2.3,10.9h-8l2.3-10.9l-0.2-0.1c-1.4-0.7-2.2-2.2-2.2-3.7c0-2.3,1.9-4.2,4.2-4.2
			s4.2,1.9,4.2,4.2C14.6,12.4,13.7,13.9,12.4,14.6z"/>
	</g>
</g>
<g>
	<polygon class="st1" points="23,8.2 23,8.2 23,8.2 23,8.2 23,8.2 23,8.2 23,8.2 23,8.2 	"/>
	<path class="st1" d="M23,8.2C22.9,8.2,22.9,8.1,23,8.2C22.9,8.1,22.9,8.1,23,8.2C22.9,8.2,22.9,8.2,23,8.2C23,8.2,23,8.2,23,8.2
		C23,8.2,23,8.2,23,8.2C23,8.2,23,8.2,23,8.2C23,8.2,23,8.2,23,8.2z"/>
	<path class="st1" d="M23,8.2C23,8.3,23,8.3,23,8.2C23,8.3,23.1,8.3,23,8.2C23,8.2,23,8.2,23,8.2z"/>
	<polygon class="st1" points="20.5,3.7 20.5,3.7 20.6,3.7 	"/>
	<polygon class="st1" points="9.3,5.2 9.3,5.2 9.3,5.2 	"/>
	<polygon class="st1" points="21.6,8.3 21.6,8.3 21.6,8.3 	"/>
	<path class="st1" d="M22.3,7.7c-0.2,0-0.4,0-0.6-0.1c-0.6,0-1.3,0.2-1.9,0.3c-0.1,0-0.2,0-0.3-0.1c-0.4-0.4-0.9-0.6-1.4-0.8
		c0.1,0,0.2,0,0.3,0c0.3,0.2,0.7,0.2,1,0.1c0.2,0,0.4-0.1,0.6-0.1c-0.4,0-0.8,0.1-1.3,0c0.1,0,0.3,0,0.4,0c1-0.1,1.5-0.6,1.8-1.7
		c0,0,0,0,0,0c0.1-0.5,0.1-0.9-0.1-1.3c0.1,0.4,0.1,0.8,0,1.1c-0.1,0.4-0.2,0.7-0.4,1c-0.3,0.4-0.7,0.6-1.2,0.7c-0.3,0-0.6,0-0.8,0
		c-0.1,0-0.2,0-0.2-0.2c0.1,0,0.1,0,0.2,0c0.4,0.1,0.7,0.1,1.1,0c0.1,0,0.1,0,0.2-0.1c-0.3,0-0.7,0.1-1,0c0.1,0,0.1,0,0.2-0.1
		c0.3-0.1,0.6-0.2,1-0.4c0.4-0.2,0.6-0.6,0.8-1c0.1-0.1,0.1-0.3,0.1-0.4c0.1-0.4,0.1-0.7,0.1-1.1c0,0,0,0,0-0.1c0-0.1,0-0.2-0.1-0.3
		c-0.1,0,0,0.1,0,0.1c0.1,0.4,0.1,0.8-0.1,1.2c-0.1,0.5-0.3,1-0.8,1.3c-0.1,0-0.1,0.1-0.2,0.1c0,0,0,0,0,0c0,0,0,0,0,0
		c0.5-0.7,0.6-1.5,0.4-2.3c0,0,0,0,0,0c0.1,0.7,0,1.4-0.4,2.1c-0.2,0.3-0.4,0.5-0.8,0.5c-0.2,0-0.3,0-0.5,0c0,0-0.1,0-0.1,0
		c0-0.1,0-0.1,0.1-0.1c0.2,0,0.4-0.1,0.6-0.1c-0.2,0-0.4,0.1-0.6,0.1c0-0.2,0.1-0.3,0.3-0.3c0.1,0,0.2-0.1,0.3-0.1c0,0,0,0,0,0
		c-0.1,0-0.2,0.1-0.4,0.1c0-0.1,0.1-0.2,0.1-0.3c0,0,0-0.1,0-0.1c-0.1,0-0.1,0-0.1,0.1c0,0-0.1,0.1-0.1,0.1c0,0,0,0.1-0.1,0
		c0,0,0,0,0-0.1c0.1-0.1,0.2-0.2,0-0.3c0,0,0,0,0,0c0.1-0.3,0.1-0.6,0.1-0.8c0-0.2,0.1-0.3,0.1-0.5c0-0.1,0-0.2,0-0.3
		c0,0.2,0,0.3-0.1,0.4c0-0.1-0.1-0.3-0.1-0.4c0,0,0,0,0,0c0,0.1,0,0.3,0,0.4c0,0.1,0,0.3-0.1,0.4c-0.1,0.1-0.2,0.3-0.3,0.3
		c-0.2,0-0.3,0.2-0.4,0.1c0,0,0,0-0.1,0c0,0,0,0,0,0c0,0,0.1,0,0.1-0.1c-0.2,0-0.3,0.1-0.5,0.1c-0.2,0.1-0.4,0-0.6-0.1
		c0,0,0,0,0-0.1c0-0.1,0-0.1,0.1-0.1c0.2,0,0.3-0.1,0.5-0.1c0.4-0.1,0.7-0.3,0.9-0.6c0,0,0.1-0.1,0-0.1c-0.1,0.1-0.1,0.1-0.1,0.2
		c-0.3,0.3-0.7,0.4-1.2,0.5c0,0-0.1,0-0.1-0.1c0,0,0,0,0,0c0-0.2,0-0.2,0.2-0.2c0.3,0,0.6-0.1,0.8-0.3c0,0,0,0,0,0
		c-0.3,0.2-0.6,0.3-1,0.2c0.2-0.1,0.4-0.2,0.6-0.4c0,0,0.1,0,0.1-0.1c0,0,0,0,0,0c0,0,0,0,0,0c0,0,0,0,0,0l0,0c0,0,0,0,0,0
		c0,0,0,0,0,0c0,0,0,0,0,0c0,0,0,0,0,0c0,0,0,0,0,0c0,0,0,0,0,0c0,0-0.1,0-0.1,0.1c-0.2,0.1-0.4,0.2-0.6,0.3c0-0.2,0-0.4-0.1-0.6
		c0,0,0,0,0,0c0,0.2,0.1,0.3,0.1,0.5c0,0.1,0,0.1-0.1,0.2c-0.1,0-0.1,0-0.2,0c-0.4-0.1-0.7-0.3-1-0.5c-0.3-0.2-0.5-0.4-0.8-0.5
		c-0.1,0-0.1-0.1-0.1-0.1c-0.1-0.3-0.3-0.5-0.6-0.6c-0.4-0.3-1-0.1-1.4,0.3c-0.1,0.1-0.2,0.3-0.2,0.4c0.2-0.3,0.4-0.5,0.7-0.6
		c0.4-0.1,0.7-0.1,0.9,0.2c-0.5-0.2-0.9,0-1.3,0.3c0,0.1,0,0.1,0,0.1c0,0,0,0,0.1,0C12.9,2,13.4,2,13.8,2.3c-0.1,0-0.1,0-0.2,0
		c-0.5,0-0.9,0.1-1.2,0.5c-0.1,0.1-0.2,0.2-0.2,0.3C12.1,3.2,12,3.4,12,3.6c-0.1,0.2-0.2,0.4-0.1,0.7c0,0,0,0.1,0,0.1
		c0,0.1,0,0.1-0.2,0.1c-0.4,0-0.8,0.4-0.8,0.8c0,0.2,0,0.4,0.1,0.6c0,0,0,0,0,0.1c0,0.2,0,0.3,0.1,0.5c-0.1-0.1-0.2-0.1-0.3-0.3
		c-0.2-0.3-0.3-0.6-0.2-1c0-0.2,0-0.3,0.1-0.5c0-0.1,0-0.1,0.1-0.2c0,0,0,0,0,0c0,0,0,0,0,0c0,0,0,0,0,0c0,0,0,0.1-0.1,0.1
		c-0.2,0.4-0.3,0.8-0.1,1.3c0,0,0,0.1,0,0.1c0,0,0,0,0,0c0,0,0,0.1,0,0.1c0,0,0,0,0,0c-0.1,0.2-0.1,0.4-0.1,0.7c0,0.1,0,0.1,0,0.1
		c-0.1,0-0.1,0-0.1,0C10,6.9,9.9,6.8,9.8,6.7c0,0,0-0.1-0.1-0.1c0,0,0-0.1,0-0.1c-0.2-0.3-0.2-0.7-0.1-1c0,0,0-0.1,0-0.1l0,0
		c0,0,0,0,0,0c0,0,0,0,0,0c0,0,0,0,0,0c0,0,0,0,0,0l0,0c0,0,0,0.1-0.1,0.1c0-0.1,0-0.2,0-0.2C9.6,5.3,9.6,5.4,9.6,5.5
		c0,0.4-0.1,0.7,0,1.1c0,0.2,0.1,0.3,0.2,0.5c0,0,0,0,0,0c0,0,0,0,0,0C9.5,6.9,9.4,6.6,9.3,6.3C9.2,6,9.3,5.6,9.5,5.3c0,0,0,0,0,0
		c0,0,0,0,0,0c0,0,0,0,0,0c0,0,0,0,0,0c0,0,0,0,0,0c0,0,0,0,0,0C9.3,5.4,9.2,5.6,9.2,5.9c-0.1,0.4,0,0.8,0.2,1.2
		c0.1,0.1,0.2,0.2,0.4,0.3c0.1,0.1,0.1,0.1,0,0.2C9.7,7.6,9.6,7.8,9.4,7.9C9,8.3,8.6,8.7,8.2,9.1c-0.4,0.4-0.9,0.8-1.3,1.1
		c-0.1,0.1-0.3,0.2-0.4,0.3c-0.1,0.1-0.1,0.1-0.2,0.2c-0.1,0.1-0.1,0.1-0.2,0.2c0,0.1-0.1,0.1-0.2,0.1c-0.1,0-0.1,0-0.2,0.1
		c0,0.1,0,0.1-0.1,0.2c-0.1,0.1-0.1,0.2-0.2,0.1c-0.1,0-0.1,0-0.2,0.1c-0.1,0.1-0.1,0.2-0.3,0.1c0,0-0.1,0-0.1,0c-0.5,0-1,0-1.5,0.1
		c0,0,0,0,0,0c-0.1,0-0.2,0-0.2,0.1c0,0.1,0.1,0.1,0.2,0.1c0.2,0,0.4,0,0.6,0.1c0,0.1-0.1,0.1-0.2,0.1c-0.2,0.1-0.5,0.1-0.7,0.1
		c-0.1,0-0.2,0-0.1,0.1c0,0.1,0.1,0.1,0.2,0.1c0.2,0,0.4-0.1,0.7-0.1c0,0.1-0.1,0.1-0.1,0.1c-0.2,0.1-0.4,0.1-0.7,0.2
		c-0.1,0-0.2,0-0.2,0.2C2.8,13,2.9,13,3,13c0.2,0,0.5-0.1,0.7-0.1c0,0,0.1,0,0.2,0C3.6,13,3.4,13,3.1,13c0,0-0.1,0-0.1,0.1
		c0,0.1,0,0.1,0.1,0.1c0.4,0,0.8,0,1.2-0.1c-0.1,0.1-0.1,0.2-0.2,0.3c0,0-0.1,0.1,0,0.1c0,0,0.1,0,0.1,0c0.1,0,0.2-0.1,0.3-0.1
		c0.4-0.2,0.8-0.5,1.1-0.8c0.3-0.2,0.5-0.5,0.7-0.7c0.1-0.1,0.2-0.2,0.4-0.2c0.1,0,0.1-0.1,0.2-0.2c0.1-0.1,0.2-0.2,0.3-0.3
		c0.4-0.3,0.7-0.5,1.1-0.8C8.7,10.2,9,9.8,9.5,9.4c0.3-0.3,0.6-0.6,1-0.8c0.1-0.1,0.3-0.1,0.4-0.2c0,0,0,0,0.1,0
		c0.1,0.3,0.1,0.6,0.2,0.9c0,0.1,0,0.2-0.1,0.2c0,0,0,0,0,0c0.2,0,0.1,0.1,0.1,0.2c0.2,0.4,0.4,0.7,0.5,1.1c0,0.1,0,0.1,0.1,0.2
		c0,0.1,0,0.3,0.2,0.4c0.1,0,0.1,0.2,0.1,0.3c-0.1,0.4-0.3,0.8-0.6,1.1c0,0,0,0.1-0.1,0c0,0-0.1,0-0.1,0.1c-0.3,0.4-0.5,0.8-0.6,1.3
		c-0.2,0.7-0.2,1.5-0.1,2.2c0,0.1,0.1,0.2,0.2,0.3c0.1,0.1,0.2,0.1,0.3,0.1c0.1,0,0.2,0.1,0.2,0.2c0.4,0.8,0.8,1.7,1.1,2.5
		c0,0.1,0,0.1,0.1,0.2c0.2,0.2,0.1,0.5,0.1,0.7c0,0.1,0,0.2-0.2,0.3c-0.2,0.1-0.3,0.2-0.4,0.4c-0.4,0.5-0.7,1-0.9,1.6
		c-0.1,0.4-0.3,0.8-0.4,1.1c0,0.1-0.1,0.2-0.2,0.2c-0.5,0-0.7,0.1-0.9,0.6c-0.1,0.3-0.4,0.5-0.6,0.8c0,0,0,0-0.1,0
		c0,0.1-0.1,0.1-0.1,0.2c0.1,0.1,0.1,0.1,0.2,0c0.1-0.1,0.3-0.3,0.4-0.4c0,0,0.1-0.1,0.1-0.1c0.2-0.1,0.3-0.1,0.3,0.1
		c0,0.2,0,0.3,0,0.5c0,0.2,0,0.3-0.1,0.5c0,0.1-0.1,0.1-0.1,0.2c-0.1,0.2-0.1,0.3,0.1,0.5c0.2,0.2,0.3,0.4,0.5,0.6
		c0.1,0.1,0.2,0.1,0.3,0.1c0.1,0,0.3,0,0.4-0.1c0.1,0,0.2-0.1,0.2-0.1c0.1-0.1,0.1-0.2,0-0.3c-0.1-0.1-0.2-0.2-0.3-0.4
		c-0.1-0.1-0.1-0.3,0-0.4c0-0.1,0.1-0.2,0.2-0.2c0.2-0.3,0.3-0.5,0.4-0.8c0,0,0-0.1,0.1-0.1c0.2-0.3,0.4-0.7,0.6-1.1
		c0.5-0.8,1.1-1.5,1.6-2.3c0.1-0.2,0.2-0.3,0.4-0.4c0.4-0.4,0.5-0.9,0.4-1.4c-0.1-0.6-0.2-1.3-0.4-1.9c0,0,0-0.1,0-0.1
		c0-0.2-0.1-0.4-0.1-0.6c0.1,0.1,0.2,0.2,0.3,0.2c0.6,0.5,1.2,0.9,1.6,1.5c0.1,0.1,0.1,0.2,0,0.3c0,0,0,0.1-0.1,0.2
		c-0.1,0.3-0.1,0.7-0.2,1c0,0.3,0,0.5,0,0.7c0,0.5,0,0.9,0,1.4c0,0.4,0,0.7,0.1,1.1c0,0.1,0,0.1-0.1,0.1c0,0-0.1,0-0.1,0.1
		c-0.2,0.1-0.3,0.2-0.3,0.4c0,0.1,0,0.3,0,0.4c0,0.3,0,0.7-0.2,1c0,0.1,0,0.1,0,0.1c0.1,0,0.1,0,0.1-0.1c0.1-0.2,0.2-0.5,0.4-0.7
		c0.3,0.3,0.4,0.6,0.3,1c-0.1,0.3-0.1,0.6,0,1c0.1,0.1,0.3,0.2,0.4,0.4c0.2,0.1,0.3,0.2,0.5,0.2c0.2,0,0.3-0.1,0.4-0.2
		c0.1-0.1,0.2-0.2,0.1-0.4c-0.1-0.1-0.2-0.3-0.3-0.4c-0.1-0.2-0.3-0.3-0.3-0.5c0-0.3,0-0.6,0.1-0.8c0-0.2,0.1-0.4,0-0.6
		c0-0.2,0-0.4,0-0.5c0-0.1,0-0.3,0-0.4c0-0.1,0-0.2,0-0.2c0.1-0.2,0.1-0.5,0.1-0.8c0-0.1,0-0.2,0.1-0.3c0,0,0-0.1,0-0.2
		c-0.1-0.3,0-0.6,0.1-0.9c0.1-0.4,0.1-0.9,0.2-1.3c0-0.1,0-0.3,0.1-0.4c0-0.1,0-0.2,0-0.3c0-0.3,0.1-0.5,0.2-0.8
		c0-0.3,0-0.5-0.2-0.7c-0.3-0.4-0.6-0.9-0.9-1.3c-0.3-0.5-0.7-1-1.1-1.5c-0.1-0.1,0-0.2,0.1-0.2c0.1,0,0.1,0,0.2,0
		c0,0.1,0.1,0,0.1,0c0.6-0.1,1.1-0.4,1.5-0.9c0.4-0.5,0.5-1.1,0.4-1.7c0-0.3-0.2-0.5-0.3-0.8c-0.3-0.6-0.5-1.2-0.8-1.8
		c0,0-0.1-0.1,0-0.1c0.3,0.2,1.1,1.6,1.3,2.4c0-0.2-0.1-0.7-0.4-1.2c-0.2-0.4-0.4-0.7-0.6-1.1c0.2,0.1,1,1.2,1.2,1.8
		c-0.1-0.4-0.3-0.8-0.6-1.2c-0.2-0.4-0.5-0.7-0.8-1.1c0.2,0.1,0.4,0.2,0.6,0.3c0.5,0.2,1,0.5,1.5,0.6c0.5,0.2,1.1,0.1,1.6,0
		c0.2,0,0.4-0.1,0.6-0.1c0,0,0.1,0,0.1,0c0.2,0.8-0.2,1.4-0.9,1.6c0,0,0,0,0.1,0c0.7-0.2,1-0.8,1-1.4c0-0.1,0-0.1,0-0.2
		c0-0.1,0-0.1,0.1-0.1c-0.1,0-0.1,0-0.1-0.1c-0.1-0.4-0.4-0.7-0.7-0.9c-0.1,0-0.1-0.1-0.1-0.1c0-0.1,0.1,0,0.1-0.1
		c0.6-0.1,1.1-0.1,1.7,0c0,0,0,0,0,0c0.3,0,0.4,0.1,0.5,0.4c0.1,0.3,0.1,0.7,0,1c0,0-0.1,0.1,0,0.1c0,0,0,0,0,0c0,0-0.1,0-0.1,0.1
		c0,0-0.1,0-0.1,0.1c0,0,0,0,0,0c0,0,0,0,0,0.1c-0.1,0.1-0.3,0.3-0.5,0.4c0,0,0,0,0,0c0.2-0.1,0.4-0.2,0.5-0.4c0,0,0,0,0,0
		c0,0,0,0,0-0.1c0,0,0.1,0,0.1-0.1c0.1,0,0.1,0,0.1-0.1c0,0,0,0,0,0c0,0,0,0,0,0c0.2-0.3,0.2-0.5,0.2-0.8c0-0.2-0.1-0.4-0.2-0.6
		c-0.1-0.1,0,0,0.1-0.1c0,0,0,0,0.1,0c0,0,0,0,0,0c0,0,0,0,0,0c0,0,0,0,0,0c0,0,0,0-0.1,0c0,0,0,0,0,0c-0.2-0.1-0.4-0.4-0.6-0.5
		c-0.5-0.2-0.9-0.2-1.4,0c0,0-0.1,0-0.1,0.1C20,8.4,20,8.4,19.7,8.1c0.7-0.1,1.3-0.4,2-0.3C22,7.7,22.1,7.7,22.3,7.7
		c0.2,0.1,0.4,0.2,0.6,0.3c0,0,0,0,0,0l0,0c0,0,0.1,0,0.1,0c0,0-0.1-0.1-0.1-0.1C22.7,7.8,22.5,7.8,22.3,7.7z M9.8,7.1
		C9.8,7.1,9.8,7.1,9.8,7.1C9.8,7.1,9.8,7.1,9.8,7.1z M9.9,7.1C9.7,6.9,9.6,6.6,9.6,6.4c0,0,0,0.1,0.1,0.1c0,0,0,0.1,0.1,0.1
		c0,0,0,0.1,0.1,0.1c0,0.1,0,0.1,0.1,0.1c0.1,0.1,0.2,0.2,0.3,0.3C10.1,7.2,10.1,7.2,9.9,7.1z M10.7,6.7c-0.1,0.1-0.2,0.1-0.3,0.2
		c0-0.3,0-0.5,0-0.7c0,0,0-0.1,0-0.1c0,0,0.1,0,0.1,0.1c0.1,0.1,0.1,0.2,0.2,0.3c0,0,0.1,0.1,0.2,0.1C10.8,6.7,10.8,6.7,10.7,6.7z
		 M11.1,6.3C11.1,6.3,11.1,6.3,11.1,6.3C11.1,6.3,11.1,6.3,11.1,6.3C11.1,6.3,11.1,6.3,11.1,6.3z M11.1,6.3c0.1,0,0.1,0.1,0.2,0.1
		C11.2,6.5,11.1,6.4,11.1,6.3z M11.4,6.3C11.2,6.2,11,6.1,11,5.9c0-0.4,0.2-0.6,0.5-0.7C11.7,5.6,11.6,6,11.4,6.3z M11.6,5.1
		C11.6,5.1,11.6,5.2,11.6,5.1C11.2,5.2,11,5.5,11,5.8c0,0,0,0,0,0c-0.1-0.3-0.1-0.6,0.1-0.9c0.2-0.3,0.4-0.4,0.8-0.4
		C11.7,4.7,11.6,4.9,11.6,5.1z M16.5,3.6c0.1,0,0.1,0,0.1,0.1c0,0.2,0,0.2-0.2,0.2c-0.1,0-0.3-0.1-0.4-0.1c0,0-0.1,0-0.1-0.1
		C16.1,3.6,16.3,3.6,16.5,3.6z M16.1,10.7c-0.1,0-0.2-0.1-0.2-0.2c-0.1-0.1-0.1-0.2-0.2-0.3C15.9,10.3,16,10.5,16.1,10.7z M16.1,9.9
		C16.1,9.9,16.1,9.9,16.1,9.9C16.1,9.9,16.1,9.9,16.1,9.9C16.1,9.9,16.1,9.9,16.1,9.9C16.1,9.9,16.1,9.9,16.1,9.9z M16.1,9.9
		C16.1,9.9,16.1,9.9,16.1,9.9C16.1,9.9,16.1,9.9,16.1,9.9C16.1,9.9,16.1,9.9,16.1,9.9C16.1,9.9,16.1,9.9,16.1,9.9z M15.7,10.2
		L15.7,10.2L15.7,10.2C15.7,10.2,15.7,10.2,15.7,10.2z M16,9.8C16,9.8,16,9.8,16,9.8C16,9.8,16,9.8,16,9.8C16,9.8,16,9.8,16,9.8
		C16,9.8,16,9.8,16,9.8z M16,9.8C16,9.8,16,9.8,16,9.8C16,9.8,16,9.8,16,9.8C16,9.8,16,9.8,16,9.8C16,9.8,16,9.8,16,9.8z M16.1,3.5
		c-0.2,0-0.4,0-0.5-0.3C15.7,3.3,15.9,3.4,16.1,3.5z M15.7,10.4C15.7,10.4,15.7,10.4,15.7,10.4c-0.1,0-0.1-0.1-0.2-0.1
		c0,0,0-0.1-0.1-0.2C15.6,10.2,15.7,10.3,15.7,10.4z M15.7,10.4C15.7,10.4,15.7,10.4,15.7,10.4C15.7,10.4,15.7,10.4,15.7,10.4z
		 M15.4,10.9c0,0.4-0.1,0.7-0.4,1c0,0,0,0,0,0c0,0,0,0,0,0c0.1-0.2,0.2-0.3,0.3-0.5C15.3,11.3,15.4,11.1,15.4,10.9z M14.9,11.7
		c0.1-0.5,0.1-0.9,0-1.4C15.2,10.5,15.2,11.3,14.9,11.7z M14.5,11.5c0.1-0.2,0.1-0.5,0.2-0.7c0.1,0.2,0.1,0.5,0.1,0.7
		c0,0,0,0.1,0,0.1c0,0,0,0,0,0c0,0,0,0,0,0c0,0.2-0.1,0.3-0.1,0.5c-0.1,0.2-0.2,0.2-0.4,0.3C14.3,12,14.4,11.8,14.5,11.5z
		 M14.4,12.4c0,0-0.1,0.1-0.1,0.1C14.3,12.4,14.3,12.4,14.4,12.4z M13.8,2.3C13.8,2.3,13.8,2.3,13.8,2.3C13.8,2.3,13.8,2.3,13.8,2.3
		C13.8,2.3,13.8,2.3,13.8,2.3z M13.9,2.3c-0.2-0.2-0.4-0.3-0.7-0.3c0.4-0.1,0.8,0,1,0.3C14,2.4,14,2.4,13.9,2.3z M17,11.1
		c0.2,0.4,0.3,0.8,0.4,1.3c0.1,0.6,0,1.1-0.4,1.6c-0.3,0.4-0.8,0.7-1.3,0.9c-0.1,0-0.1,0-0.2,0c0,0,0.1,0,0.1-0.1
		c0.7-0.3,1.2-0.9,1.3-1.6c0.1-0.2,0-0.4,0-0.7c0-0.3,0-0.7,0-1c0.2,0.3,0.3,0.7,0.4,1c0,0,0,0,0,0c-0.1-0.3-0.1-0.5-0.2-0.8
		c-0.1-0.3-0.3-0.5-0.3-0.8C16.9,11,16.9,11,17,11.1z M16.9,11.5C16.9,11.5,16.9,11.5,16.9,11.5C16.9,11.5,16.9,11.5,16.9,11.5
		C16.9,11.5,16.9,11.5,16.9,11.5C16.9,11.5,16.9,11.5,16.9,11.5z M16.8,10.8C16.8,10.8,16.8,10.8,16.8,10.8
		C16.8,10.8,16.8,10.8,16.8,10.8C16.8,10.8,16.8,10.8,16.8,10.8z M16.6,10.3c0.1,0.1,0.1,0.3,0.2,0.4c0,0,0,0.1,0,0.1c0,0,0,0,0,0
		c-0.1,0-0.1-0.1-0.2-0.2C16.6,10.5,16.6,10.4,16.6,10.3c-0.1-0.1-0.1-0.1-0.1-0.2C16.5,10.2,16.6,10.2,16.6,10.3z M16.5,10.1
		C16.5,10.1,16.5,10.1,16.5,10.1C16.5,10.1,16.5,10.1,16.5,10.1C16.5,10.1,16.5,10.1,16.5,10.1C16.4,10.1,16.5,10.1,16.5,10.1z
		 M16.7,12.2c0,0.1,0,0.2,0,0.3c-0.2,0.8-1,1.5-1.8,1.6c0,0,0,0,0,0c0.8-0.1,1.3-0.5,1.9-1.4c0,0.3,0,0.5-0.1,0.8
		c-0.3,0.6-0.7,1.1-1.4,1.3c-0.1,0-0.1,0-0.2,0c-0.1-0.2-0.3-0.4-0.5-0.5c0,0-0.1-0.1-0.1-0.1l0,0c-0.1,0-0.1-0.1-0.1-0.2
		c0-0.1-0.1-0.2-0.2-0.3c-0.2-0.1-0.2-0.1-0.1-0.4c0-0.2,0.1-0.3,0.1-0.5c0-0.1,0-0.1,0.1-0.1c0.2-0.2,0.4-0.3,0.7-0.4
		c0.6-0.4,0.8-0.9,0.6-1.5c0,0,0,0,0,0c0,0,0,0,0,0c0.2,0.1,0.3,0.3,0.4,0.5c0.1,0.3,0.2,0.6,0.3,1c0,0,0,0,0,0
		c0-0.4-0.1-0.8-0.3-1.2c0.1,0,0.2,0.1,0.2,0.2C16.4,11.4,16.6,11.8,16.7,12.2z M16.1,10c0,0,0.1,0.1,0,0.2
		C16.1,10.1,16.1,10,16.1,10z M16.4,9.4C16.4,9.4,16.4,9.4,16.4,9.4C16.4,9.4,16.4,9.4,16.4,9.4C16.4,9.4,16.4,9.4,16.4,9.4
		C16.4,9.4,16.4,9.4,16.4,9.4z M16.3,4.3c-0.1,0-0.2-0.1-0.2-0.1c0.2,0,0.3,0,0.4,0C16.4,4.3,16.4,4.4,16.3,4.3z M16.8,9.5
		C16.8,9.6,16.7,9.5,16.8,9.5C16.7,9.5,16.7,9.5,16.8,9.5C16.7,9.5,16.8,9.5,16.8,9.5z M22.2,8.6c-0.1,0-0.2,0-0.3-0.1
		c-0.3-0.1-0.5-0.1-0.8-0.2c0.3,0,0.5,0,0.8,0.1C22,8.5,22.1,8.5,22.2,8.6z M21.9,8.3C21.9,8.3,21.9,8.3,21.9,8.3
		c0.1,0,0.1,0.1,0.2,0.2C22,8.4,22,8.4,21.9,8.3c-0.4,0-0.7-0.1-1.1-0.1C21.1,8,21.5,8,21.9,8.3z M19.1,8.1c0.2-0.1,0.2,0,0.2,0.1
		c0.1-0.1,0.1,0,0.4,0.2c-0.1,0.1-0.2,0.1-0.3,0C19.4,8.3,19.3,8.2,19.1,8.1z M19.3,8.5c-0.1,0-0.2,0-0.3,0
		C19.2,8.4,19.2,8.4,19.3,8.5z M19.4,8c-0.1,0-0.1,0-0.1-0.1C19.4,7.9,19.4,8,19.4,8z M19.3,7.9c-0.1,0-0.1,0-0.1-0.1
		C19.2,7.9,19.3,7.9,19.3,7.9z M19.2,7.9c-0.1,0-0.1,0-0.1,0C19.1,7.8,19.2,7.8,19.2,7.9z M19.2,8c-0.1,0-0.2,0-0.3-0.1
		c-0.2-0.1-0.4-0.2-0.6-0.3C18.6,7.7,18.9,7.9,19.2,8z M19.1,8.4C19.1,8.4,19.1,8.4,19.1,8.4c-0.2,0.2-0.4,0.2-0.6,0.1
		c-0.4-0.2-0.7-0.4-1.1-0.6C18.1,8,18.6,8.1,19.1,8.4z M17.6,4.9c0,0,0.1,0,0.1,0C17.5,5,17.4,5,17.2,5C17.3,5,17.5,5,17.6,4.9z
		 M17.9,8.7c-0.2,0-0.4-0.1-0.6-0.2C17.5,8.5,17.7,8.6,17.9,8.7z M18.3,4.4c0,0.1-0.1,0.3-0.1,0.4c-0.1,0.1-0.2,0.2-0.2,0.3
		c0,0-0.1,0.1-0.1,0.1C18,4.9,18.1,4.6,18.3,4.4z M16.6,4.8c0.2,0,0.3,0,0.5,0C16.9,4.8,16.7,4.8,16.6,4.8z M16.8,4.9
		c0.2,0,0.4-0.1,0.6-0.2c0.2-0.1,0.4-0.2,0.6-0.3c-0.1,0.1-0.1,0.3-0.3,0.4c0,0-0.1,0-0.1,0c-0.2,0-0.3,0.1-0.5,0.1
		C17,5,16.9,5,16.8,4.9z M17.3,5.7c-0.1,0-0.2,0-0.3-0.1C17.1,5.6,17.2,5.7,17.3,5.7z M17,8.9c0.1,0,0.1,0,0.2,0.1
		C17.1,9,17.1,8.9,17,8.9z M17.2,9c0.1,0,0.2,0.1,0.3,0.1C17.4,9.1,17.3,9,17.2,9z M20.8,9.5c0.1,0.3,0.1,0.3-0.2,0.3
		c-0.4,0-0.8,0.1-1.2,0c-0.5,0-1-0.2-1.4-0.4c-0.2-0.1-0.4-0.2-0.6-0.3c0,0,0,0,0,0c0.2,0.1,0.4,0.2,0.5,0.3
		c0.4,0.2,0.7,0.2,1.2,0.2c-0.6-0.2-1.1-0.4-1.6-0.8c0.2,0,0.5,0,0.7,0c0.1,0,0.3,0.1,0.4,0.1c0.3,0,0.6,0.1,0.8-0.1
		c0.1,0,0.1,0,0.1,0C19.8,9,19.9,9,19.9,9.1c0,0,0,0,0,0c0-0.1-0.1-0.2-0.1-0.3C20.3,8.9,20.6,9.1,20.8,9.5z M19.8,8.4
		c-0.1-0.1-0.2-0.2-0.3-0.3c0,0,0,0,0,0C19.7,8.2,19.8,8.3,19.8,8.4z"/>
	<path class="st1" d="M22.8,8C22.8,8,22.7,8,22.8,8C22.7,8,22.8,8.1,22.8,8C22.8,8.1,22.8,8.1,22.8,8C22.8,8,22.8,8,22.8,8z"/>
	<path class="st1" d="M22.8,8.1C22.8,8.1,22.8,8.1,22.8,8.1C22.8,8.1,22.9,8.1,22.8,8.1C22.9,8.1,22.9,8.1,22.8,8.1
		C22.8,8.1,22.8,8.1,22.8,8.1z"/>
	<path class="st1" d="M18,3.2C18,3.2,18,3.2,18,3.2C18,3.2,18,3.2,18,3.2C18,3.2,18,3.2,18,3.2C18,3.2,18,3.2,18,3.2z"/>
	<path class="st1" d="M18.6,5.4C18.6,5.4,18.6,5.4,18.6,5.4C18.6,5.4,18.6,5.4,18.6,5.4C18.6,5.4,18.7,5.4,18.6,5.4z"/>
	<path class="st1" d="M17.1,3C17.1,3,17.1,3,17.1,3C17.1,3,17.1,3,17.1,3C17.1,3,17.1,3,17.1,3z"/>
	<polygon class="st1" points="9.3,5.2 9.3,5.2 9.3,5.2 	"/>
	<path class="st1" d="M9.4,5.2C9.4,5.2,9.4,5.2,9.4,5.2C9.4,5.2,9.4,5.2,9.4,5.2C9.4,5.2,9.4,5.2,9.4,5.2z"/>
	<polygon class="st1" points="9.4,5.1 9.4,5.1 9.4,5.1 	"/>
	<polygon class="st1" points="9.4,5.1 9.4,5.1 9.4,5.1 	"/>
	<polygon class="st1" points="9.4,5 9.4,5 9.4,5 	"/>
	<path class="st1" d="M19.7,9.2C19.7,9.2,19.7,9.1,19.7,9.2C19.7,9.1,19.7,9.1,19.7,9.2C19.7,9.2,19.7,9.2,19.7,9.2z"/>
	<path class="st1" d="M20.6,3.9C20.6,3.9,20.6,3.9,20.6,3.9C20.6,3.9,20.6,3.9,20.6,3.9C20.6,3.9,20.6,3.9,20.6,3.9
		C20.6,3.9,20.6,3.9,20.6,3.9z"/>
	<path class="st1" d="M19.4,6.5c0,0,0.1,0,0.1,0C19.5,6.5,19.5,6.5,19.4,6.5z"/>
	<path class="st1" d="M14.5,11.6C14.5,11.6,14.5,11.6,14.5,11.6C14.5,11.6,14.5,11.6,14.5,11.6C14.5,11.6,14.5,11.6,14.5,11.6
		C14.5,11.6,14.5,11.6,14.5,11.6z"/>
	<path class="st2" d="M22,7.7c-0.2,0-0.4,0-0.6-0.1c-0.6,0-1.3,0.2-1.9,0.3c-0.1,0-0.2,0-0.3-0.1c-0.4-0.4-0.9-0.6-1.4-0.8
		c0.1,0,0.2,0,0.3,0c0.3,0.2,0.7,0.2,1,0.1c0.2,0,0.4-0.1,0.6-0.1c-0.4,0-0.8,0.1-1.3,0c0.1,0,0.3,0,0.4,0c1-0.1,1.5-0.6,1.8-1.7
		c0,0,0,0,0,0c0.1-0.5,0.1-0.9-0.1-1.3c0.1,0.4,0.1,0.8,0,1.1c-0.1,0.4-0.2,0.7-0.4,1c-0.3,0.4-0.7,0.6-1.2,0.7c-0.3,0-0.6,0-0.8,0
		c-0.1,0-0.2,0-0.2-0.2c0.1,0,0.1,0,0.2,0c0.4,0.1,0.7,0.1,1.1,0c0.1,0,0.1,0,0.2-0.1c-0.3,0-0.7,0.1-1,0c0.1,0,0.1,0,0.2-0.1
		c0.3-0.1,0.6-0.2,1-0.4c0.4-0.2,0.6-0.6,0.8-1c0.1-0.1,0.1-0.3,0.1-0.4c0.1-0.4,0.1-0.7,0.1-1.1c0,0,0,0,0-0.1c0-0.1,0-0.2-0.1-0.3
		c-0.1,0,0,0.1,0,0.1c0.1,0.4,0.1,0.8-0.1,1.2c-0.1,0.5-0.3,1-0.8,1.3c-0.1,0-0.1,0.1-0.2,0.1c0,0,0,0,0,0c0,0,0,0,0,0
		c0.5-0.7,0.6-1.5,0.4-2.3c0,0,0,0,0,0c0.1,0.7,0,1.4-0.4,2.1c-0.2,0.3-0.4,0.5-0.8,0.5c-0.2,0-0.3,0-0.5,0c0,0-0.1,0-0.1,0
		c0-0.1,0-0.1,0.1-0.1c0.2,0,0.4-0.1,0.6-0.1c-0.2,0-0.4,0.1-0.6,0.1c0-0.2,0.1-0.3,0.3-0.3c0.1,0,0.2-0.1,0.3-0.1c0,0,0,0,0,0
		c-0.1,0-0.2,0.1-0.4,0.1c0-0.1,0.1-0.2,0.1-0.3c0,0,0-0.1,0-0.1c-0.1,0-0.1,0-0.1,0.1c0,0-0.1,0.1-0.1,0.1c0,0,0,0.1-0.1,0
		c0,0,0,0,0-0.1c0.1-0.1,0.2-0.2,0-0.3c0,0,0,0,0,0c0.1-0.3,0.1-0.6,0.1-0.8c0-0.2,0.1-0.3,0.1-0.5c0-0.1,0-0.2,0-0.3
		c0,0.2,0,0.3-0.1,0.4c0-0.1-0.1-0.3-0.1-0.4c0,0,0,0,0,0c0,0.1,0,0.3,0,0.4c0,0.1,0,0.3-0.1,0.4c-0.1,0.1-0.2,0.3-0.3,0.3
		c-0.2,0-0.3,0.2-0.4,0.1c0,0,0,0-0.1,0c0,0,0,0,0,0c0,0,0.1,0,0.1-0.1c-0.2,0-0.3,0.1-0.5,0.1c-0.2,0.1-0.4,0-0.6-0.1
		c0,0,0,0,0-0.1c0-0.1,0-0.1,0.1-0.1c0.2,0,0.3-0.1,0.5-0.1c0.4-0.1,0.7-0.3,0.9-0.6c0,0,0.1-0.1,0-0.1c-0.1,0.1-0.1,0.1-0.1,0.2
		c-0.3,0.3-0.7,0.4-1.2,0.5c0,0-0.1,0-0.1-0.1c0,0,0,0,0,0c0-0.2,0-0.2,0.2-0.2c0.3,0,0.6-0.1,0.8-0.3c0,0,0,0,0,0
		c-0.3,0.2-0.6,0.3-1,0.2c0.2-0.1,0.4-0.2,0.6-0.4c0,0,0.1,0,0.1-0.1c0,0,0,0,0,0c0,0,0,0,0,0c0,0,0,0,0,0l0,0c0,0,0,0,0,0
		c0,0,0,0,0,0c0,0,0,0,0,0c0,0,0,0,0,0c0,0,0,0,0,0c0,0,0,0,0,0c0,0-0.1,0-0.1,0.1c-0.2,0.1-0.4,0.2-0.6,0.3c0-0.2,0-0.4-0.1-0.6
		c0,0,0,0,0,0c0,0.2,0.1,0.3,0.1,0.5c0,0.1,0,0.1-0.1,0.2c-0.1,0-0.1,0-0.2,0c-0.4-0.1-0.7-0.3-1-0.5c-0.3-0.2-0.5-0.4-0.8-0.5
		c-0.1,0-0.1-0.1-0.1-0.1c-0.1-0.3-0.3-0.5-0.6-0.6c-0.4-0.3-1-0.1-1.4,0.3c-0.1,0.1-0.2,0.3-0.2,0.4c0.2-0.3,0.4-0.5,0.7-0.6
		C13,1.7,13.3,1.7,13.6,2c-0.5-0.2-0.9,0-1.3,0.3c0,0.1,0,0.1,0,0.1c0,0,0,0,0.1,0C12.6,2,13.1,2,13.5,2.3c-0.1,0-0.1,0-0.2,0
		c-0.5,0-0.9,0.1-1.2,0.5c-0.1,0.1-0.2,0.2-0.2,0.3c-0.1,0.2-0.1,0.3-0.2,0.5c-0.1,0.2-0.2,0.4-0.1,0.7c0,0,0,0.1,0,0.1
		c0,0.1,0,0.1-0.2,0.1c-0.4,0-0.8,0.4-0.8,0.8c0,0.2,0,0.4,0.1,0.6c0,0,0,0,0,0.1c0,0.2,0,0.3,0.1,0.5c-0.1-0.1-0.2-0.1-0.3-0.3
		c-0.2-0.3-0.3-0.6-0.2-1c0-0.2,0-0.3,0.1-0.5c0-0.1,0-0.1,0.1-0.2c0,0,0,0,0,0c0,0,0,0,0,0c0,0,0,0,0,0c0,0,0,0.1-0.1,0.1
		C10.1,5.1,10,5.5,10.2,6c0,0,0,0.1,0,0.1c0,0,0,0,0,0c0,0,0,0.1,0,0.1c0,0,0,0,0,0C10,6.4,10,6.6,10,6.9c0,0.1,0,0.1,0,0.1
		C9.9,7,9.9,7,9.9,7C9.7,6.9,9.6,6.8,9.5,6.7c0,0,0-0.1-0.1-0.1c0,0,0-0.1,0-0.1c-0.2-0.3-0.2-0.7-0.1-1c0,0,0-0.1,0-0.1l0,0
		c0,0,0,0,0,0c0,0,0,0,0,0c0,0,0,0,0,0c0,0,0,0,0,0l0,0c0,0,0,0.1-0.1,0.1c0-0.1,0-0.2,0-0.2C9.3,5.3,9.3,5.4,9.3,5.5
		c0,0.4-0.1,0.7,0,1.1c0,0.2,0.1,0.3,0.2,0.5c0,0,0,0,0,0c0,0,0,0,0,0C9.2,6.9,9.1,6.6,9,6.3C8.9,6,9,5.6,9.2,5.3c0,0,0,0,0,0
		c0,0,0,0,0,0c0,0,0,0,0,0c0,0,0,0,0,0c0,0,0,0,0,0c0,0,0,0,0,0C9,5.4,8.9,5.6,8.9,5.9c-0.1,0.4,0,0.8,0.2,1.2
		c0.1,0.1,0.2,0.2,0.4,0.3c0.1,0.1,0.1,0.1,0,0.2C9.4,7.6,9.3,7.8,9.1,7.9C8.7,8.3,8.3,8.7,7.9,9.1c-0.4,0.4-0.9,0.8-1.3,1.1
		c-0.1,0.1-0.3,0.2-0.4,0.3c-0.1,0.1-0.1,0.1-0.2,0.2c-0.1,0.1-0.1,0.1-0.2,0.2c0,0.1-0.1,0.1-0.2,0.1c-0.1,0-0.1,0-0.2,0.1
		c0,0.1,0,0.1-0.1,0.2c-0.1,0.1-0.1,0.2-0.2,0.1c-0.1,0-0.1,0-0.2,0.1c-0.1,0.1-0.1,0.2-0.3,0.1c0,0-0.1,0-0.1,0c-0.5,0-1,0-1.5,0.1
		c0,0,0,0,0,0c-0.1,0-0.2,0-0.2,0.1C2.8,12.1,3,12,3,12c0.2,0,0.4,0,0.6,0.1c0,0.1-0.1,0.1-0.2,0.1c-0.2,0.1-0.5,0.1-0.7,0.1
		c-0.1,0-0.2,0-0.1,0.1c0,0.1,0.1,0.1,0.2,0.1c0.2,0,0.4-0.1,0.7-0.1c0,0.1-0.1,0.1-0.1,0.1c-0.2,0.1-0.4,0.1-0.7,0.2
		c-0.1,0-0.2,0-0.2,0.2C2.5,13,2.6,13,2.7,13c0.2,0,0.5-0.1,0.7-0.1c0,0,0.1,0,0.2,0C3.3,13,3.1,13,2.8,13c0,0-0.1,0-0.1,0.1
		c0,0.1,0,0.1,0.1,0.1c0.4,0,0.8,0,1.2-0.1c-0.1,0.1-0.1,0.2-0.2,0.3c0,0-0.1,0.1,0,0.1c0,0,0.1,0,0.1,0c0.1,0,0.2-0.1,0.3-0.1
		c0.4-0.2,0.8-0.5,1.1-0.8C5.6,12.5,5.8,12.2,6,12c0.1-0.1,0.2-0.2,0.4-0.2c0.1,0,0.1-0.1,0.2-0.2c0.1-0.1,0.2-0.2,0.3-0.3
		c0.4-0.3,0.7-0.5,1.1-0.8c0.4-0.3,0.8-0.7,1.2-1.1c0.3-0.3,0.6-0.6,1-0.8c0.1-0.1,0.3-0.1,0.4-0.2c0,0,0,0,0.1,0
		c0.1,0.3,0.1,0.6,0.2,0.9c0,0.1,0,0.2-0.1,0.2c0,0,0,0,0,0c0.2,0,0.1,0.1,0.1,0.2c0.2,0.4,0.4,0.7,0.5,1.1c0,0.1,0,0.1,0.1,0.2
		c0,0.1,0,0.3,0.2,0.4c0.1,0,0.1,0.2,0.1,0.3c-0.1,0.4-0.3,0.8-0.6,1.1c0,0,0,0.1-0.1,0c0,0-0.1,0-0.1,0.1c-0.3,0.4-0.5,0.8-0.6,1.3
		c-0.2,0.7-0.2,1.5-0.1,2.2c0,0.1,0.1,0.2,0.2,0.3c0.1,0.1,0.2,0.1,0.3,0.1c0.1,0,0.2,0.1,0.2,0.2c0.4,0.8,0.8,1.7,1.1,2.5
		c0,0.1,0,0.1,0.1,0.2c0.2,0.2,0.1,0.5,0.1,0.7c0,0.1,0,0.2-0.2,0.3c-0.2,0.1-0.3,0.2-0.4,0.4c-0.4,0.5-0.7,1-0.9,1.6
		c-0.1,0.4-0.3,0.8-0.4,1.1c0,0.1-0.1,0.2-0.2,0.2c-0.5,0-0.7,0.1-0.9,0.6c-0.1,0.3-0.4,0.5-0.6,0.8c0,0,0,0-0.1,0
		c0,0.1-0.1,0.1-0.1,0.2c0.1,0.1,0.1,0.1,0.2,0c0.1-0.1,0.3-0.3,0.4-0.4c0,0,0.1-0.1,0.1-0.1c0.2-0.1,0.3-0.1,0.3,0.1
		c0,0.2,0,0.3,0,0.5c0,0.2,0,0.3-0.1,0.5c0,0.1-0.1,0.1-0.1,0.2c-0.1,0.2-0.1,0.3,0.1,0.5c0.2,0.2,0.3,0.4,0.5,0.6
		c0.1,0.1,0.2,0.1,0.3,0.1c0.1,0,0.3,0,0.4-0.1c0.1,0,0.2-0.1,0.2-0.1c0.1-0.1,0.1-0.2,0-0.3c-0.1-0.1-0.2-0.2-0.3-0.4
		c-0.1-0.1-0.1-0.3,0-0.4c0-0.1,0.1-0.2,0.2-0.2c0.2-0.3,0.3-0.5,0.4-0.8c0,0,0-0.1,0.1-0.1c0.2-0.3,0.4-0.7,0.6-1.1
		c0.5-0.8,1.1-1.5,1.6-2.3c0.1-0.2,0.2-0.3,0.4-0.4c0.4-0.4,0.5-0.9,0.4-1.4c-0.1-0.6-0.2-1.3-0.4-1.9c0,0,0-0.1,0-0.1
		c0-0.2-0.1-0.4-0.1-0.6c0.1,0.1,0.2,0.2,0.3,0.2c0.6,0.5,1.2,0.9,1.6,1.5c0.1,0.1,0.1,0.2,0,0.3c0,0,0,0.1-0.1,0.2
		c-0.1,0.3-0.1,0.7-0.2,1c0,0.3,0,0.5,0,0.7c0,0.5,0,0.9,0,1.4c0,0.4,0,0.7,0.1,1.1c0,0.1,0,0.1-0.1,0.1c0,0-0.1,0-0.1,0.1
		c-0.2,0.1-0.3,0.2-0.3,0.4c0,0.1,0,0.3,0,0.4c0,0.3,0,0.7-0.2,1c0,0.1,0,0.1,0,0.1c0.1,0,0.1,0,0.1-0.1c0.1-0.2,0.2-0.5,0.4-0.7
		c0.3,0.3,0.4,0.6,0.3,1c-0.1,0.3-0.1,0.6,0,1c0.1,0.1,0.3,0.2,0.4,0.4c0.2,0.1,0.3,0.2,0.5,0.2c0.2,0,0.3-0.1,0.4-0.2
		c0.1-0.1,0.2-0.2,0.1-0.4c-0.1-0.1-0.2-0.3-0.3-0.4c-0.1-0.2-0.3-0.3-0.3-0.5c0-0.3,0-0.6,0.1-0.8c0-0.2,0.1-0.4,0-0.6
		c0-0.2,0-0.4,0-0.5c0-0.1,0-0.3,0-0.4c0-0.1,0-0.2,0-0.2c0.1-0.2,0.1-0.5,0.1-0.8c0-0.1,0-0.2,0.1-0.3c0,0,0-0.1,0-0.2
		c-0.1-0.3,0-0.6,0.1-0.9c0.1-0.4,0.1-0.9,0.2-1.3c0-0.1,0-0.3,0.1-0.4c0-0.1,0-0.2,0-0.3c0-0.3,0.1-0.5,0.2-0.8
		c0-0.3,0-0.5-0.2-0.7c-0.3-0.4-0.6-0.9-0.9-1.3c-0.3-0.5-0.7-1-1.1-1.5c-0.1-0.1,0-0.2,0.1-0.2c0.1,0,0.1,0,0.2,0
		c0,0.1,0.1,0,0.1,0c0.6-0.1,1.1-0.4,1.5-0.9c0.4-0.5,0.5-1.1,0.4-1.7c0-0.3-0.2-0.5-0.3-0.8c-0.3-0.6-0.5-1.2-0.8-1.8
		c0,0-0.1-0.1,0-0.1c0.3,0.2,1.1,1.6,1.3,2.4c0-0.2-0.1-0.7-0.4-1.2c-0.2-0.4-0.4-0.7-0.6-1.1c0.2,0.1,1,1.2,1.2,1.8
		c-0.1-0.4-0.3-0.8-0.6-1.2c-0.2-0.4-0.5-0.7-0.8-1.1c0.2,0.1,0.4,0.2,0.6,0.3c0.5,0.2,1,0.5,1.5,0.6c0.5,0.2,1.1,0.1,1.6,0
		c0.2,0,0.4-0.1,0.6-0.1c0,0,0.1,0,0.1,0c0.2,0.8-0.2,1.4-0.9,1.6c0,0,0,0,0.1,0c0.7-0.2,1-0.8,1-1.4c0-0.1,0-0.1,0-0.2
		c0-0.1,0-0.1,0.1-0.1c-0.1,0-0.1,0-0.1-0.1c-0.1-0.4-0.4-0.7-0.7-0.9c-0.1,0-0.1-0.1-0.1-0.1c0-0.1,0.1,0,0.1-0.1
		c0.6-0.1,1.1-0.1,1.7,0c0,0,0,0,0,0c0.3,0,0.4,0.1,0.5,0.4c0.1,0.3,0.1,0.7,0,1c0,0-0.1,0.1,0,0.1c0,0,0,0,0,0c0,0-0.1,0-0.1,0.1
		c0,0-0.1,0-0.1,0.1c0,0,0,0,0,0c0,0,0,0,0,0.1c-0.1,0.1-0.3,0.3-0.5,0.4c0,0,0,0,0,0c0.2-0.1,0.4-0.2,0.5-0.4c0,0,0,0,0,0
		c0,0,0,0,0-0.1c0,0,0.1,0,0.1-0.1c0.1,0,0.1,0,0.1-0.1c0,0,0,0,0,0c0,0,0,0,0,0c0.2-0.3,0.2-0.5,0.2-0.8c0-0.2-0.1-0.4-0.2-0.6
		c-0.1-0.1,0,0,0.1-0.1c0,0,0,0,0.1,0c0,0,0,0,0,0c0,0,0,0,0,0c0,0,0,0,0,0c0,0,0,0-0.1,0c0,0,0,0,0,0c-0.2-0.1-0.4-0.4-0.6-0.5
		c-0.5-0.2-0.9-0.2-1.4,0c0,0-0.1,0-0.1,0.1c-0.3,0.2-0.4,0.2-0.6-0.2c0.7-0.1,1.3-0.4,2-0.3C21.7,7.7,21.8,7.7,22,7.7
		c0.2,0.1,0.4,0.2,0.6,0.3c0,0,0,0,0,0l0,0c0,0,0.1,0,0.1,0c0,0-0.1-0.1-0.1-0.1C22.4,7.8,22.2,7.8,22,7.7z M9.5,7.1
		C9.5,7.1,9.5,7.1,9.5,7.1C9.5,7.1,9.5,7.1,9.5,7.1z M9.6,7.1C9.4,6.9,9.3,6.6,9.3,6.4c0,0,0,0.1,0.1,0.1c0,0,0,0.1,0.1,0.1
		c0,0,0,0.1,0.1,0.1c0,0.1,0,0.1,0.1,0.1C9.6,6.9,9.8,7,9.9,7.1C9.8,7.2,9.8,7.2,9.6,7.1z M10.4,6.7c-0.1,0.1-0.2,0.1-0.3,0.2
		c0-0.3,0-0.5,0-0.7c0,0,0-0.1,0-0.1c0,0,0.1,0,0.1,0.1c0.1,0.1,0.1,0.2,0.2,0.3c0,0,0.1,0.1,0.2,0.1C10.5,6.7,10.5,6.7,10.4,6.7z
		 M10.8,6.3C10.8,6.3,10.8,6.3,10.8,6.3C10.8,6.3,10.8,6.3,10.8,6.3C10.8,6.3,10.8,6.3,10.8,6.3z M10.8,6.3c0.1,0,0.1,0.1,0.2,0.1
		C10.9,6.5,10.8,6.4,10.8,6.3z M11.1,6.3c-0.2-0.1-0.4-0.2-0.3-0.4c0-0.4,0.2-0.6,0.5-0.7C11.4,5.6,11.3,6,11.1,6.3z M11.3,5.1
		C11.3,5.1,11.3,5.2,11.3,5.1c-0.4,0.1-0.5,0.4-0.6,0.7c0,0,0,0,0,0c-0.1-0.3-0.1-0.6,0.1-0.9c0.2-0.3,0.4-0.4,0.8-0.4
		C11.4,4.7,11.3,4.9,11.3,5.1z M16.2,3.6c0.1,0,0.1,0,0.1,0.1c0,0.2,0,0.2-0.2,0.2c-0.1,0-0.3-0.1-0.4-0.1c0,0-0.1,0-0.1-0.1
		C15.8,3.6,16,3.6,16.2,3.6z M15.8,10.7c-0.1,0-0.2-0.1-0.2-0.2c-0.1-0.1-0.1-0.2-0.2-0.3C15.6,10.3,15.7,10.5,15.8,10.7z M15.8,9.9
		C15.8,9.9,15.8,9.9,15.8,9.9C15.8,9.9,15.8,9.9,15.8,9.9C15.8,9.9,15.8,9.9,15.8,9.9C15.8,9.9,15.8,9.9,15.8,9.9z M15.8,9.9
		C15.8,9.9,15.8,9.9,15.8,9.9C15.8,9.9,15.8,9.9,15.8,9.9C15.8,9.9,15.8,9.9,15.8,9.9C15.8,9.9,15.8,9.9,15.8,9.9z M15.4,10.2
		L15.4,10.2L15.4,10.2C15.4,10.2,15.4,10.2,15.4,10.2z M15.7,9.8C15.7,9.8,15.7,9.8,15.7,9.8C15.7,9.8,15.7,9.8,15.7,9.8
		C15.7,9.8,15.7,9.8,15.7,9.8C15.7,9.8,15.7,9.8,15.7,9.8z M15.7,9.8C15.7,9.8,15.7,9.8,15.7,9.8C15.7,9.8,15.7,9.8,15.7,9.8
		C15.7,9.8,15.7,9.8,15.7,9.8C15.7,9.8,15.7,9.8,15.7,9.8z M15.8,3.5c-0.2,0-0.4,0-0.5-0.3C15.4,3.3,15.6,3.4,15.8,3.5z M15.4,10.4
		C15.4,10.4,15.4,10.4,15.4,10.4c-0.1,0-0.1-0.1-0.2-0.1c0,0,0-0.1-0.1-0.2C15.3,10.2,15.4,10.3,15.4,10.4z M15.4,10.4
		C15.4,10.4,15.4,10.4,15.4,10.4C15.4,10.4,15.4,10.4,15.4,10.4z M15.1,10.9c0,0.4-0.1,0.7-0.4,1c0,0,0,0,0,0c0,0,0,0,0,0
		c0.1-0.2,0.2-0.3,0.3-0.5C15,11.3,15.1,11.1,15.1,10.9z M14.6,11.7c0.1-0.5,0.1-0.9,0-1.4C14.9,10.5,14.9,11.3,14.6,11.7z
		 M14.2,11.5c0.1-0.2,0.1-0.5,0.2-0.7c0.1,0.2,0.1,0.5,0.1,0.7c0,0,0,0.1,0,0.1c0,0,0,0,0,0c0,0,0,0,0,0c0,0.2-0.1,0.3-0.1,0.5
		c-0.1,0.2-0.2,0.2-0.4,0.3C14,12,14.1,11.8,14.2,11.5z M14.1,12.4c0,0-0.1,0.1-0.1,0.1C14,12.4,14,12.4,14.1,12.4z M13.5,2.3
		C13.5,2.3,13.5,2.3,13.5,2.3C13.5,2.3,13.5,2.3,13.5,2.3C13.5,2.3,13.5,2.3,13.5,2.3z M13.6,2.3c-0.2-0.2-0.4-0.3-0.7-0.3
		c0.4-0.1,0.8,0,1,0.3C13.8,2.4,13.7,2.4,13.6,2.3z M16.7,11.1c0.2,0.4,0.3,0.8,0.4,1.3c0.1,0.6,0,1.1-0.4,1.6
		c-0.3,0.4-0.8,0.7-1.3,0.9c-0.1,0-0.1,0-0.2,0c0,0,0.1,0,0.1-0.1c0.7-0.3,1.2-0.9,1.3-1.6c0.1-0.2,0-0.4,0-0.7c0-0.3,0-0.7,0-1
		c0.2,0.3,0.3,0.7,0.4,1c0,0,0,0,0,0c-0.1-0.3-0.1-0.5-0.2-0.8c-0.1-0.3-0.3-0.5-0.3-0.8C16.6,11,16.6,11,16.7,11.1z M16.6,11.5
		C16.6,11.5,16.6,11.5,16.6,11.5C16.6,11.5,16.6,11.5,16.6,11.5C16.6,11.5,16.6,11.5,16.6,11.5C16.6,11.5,16.6,11.5,16.6,11.5z
		 M16.5,10.8C16.5,10.8,16.5,10.8,16.5,10.8C16.5,10.8,16.5,10.8,16.5,10.8C16.5,10.8,16.5,10.8,16.5,10.8z M16.3,10.3
		c0.1,0.1,0.1,0.3,0.2,0.4c0,0,0,0.1,0,0.1c0,0,0,0,0,0c-0.1,0-0.1-0.1-0.2-0.2C16.3,10.5,16.3,10.4,16.3,10.3
		c-0.1-0.1-0.1-0.1-0.1-0.2C16.2,10.2,16.3,10.2,16.3,10.3z M16.2,10.1C16.2,10.1,16.2,10.1,16.2,10.1
		C16.2,10.1,16.2,10.1,16.2,10.1C16.2,10.1,16.2,10.1,16.2,10.1C16.1,10.1,16.2,10.1,16.2,10.1z M16.4,12.2c0,0.1,0,0.2,0,0.3
		c-0.2,0.8-1,1.5-1.8,1.6c0,0,0,0,0,0c0.8-0.1,1.3-0.5,1.9-1.4c0,0.3,0,0.5-0.1,0.8c-0.3,0.6-0.7,1.1-1.4,1.3c-0.1,0-0.1,0-0.2,0
		c-0.1-0.2-0.3-0.4-0.5-0.5c0,0-0.1-0.1-0.1-0.1l0,0c-0.1,0-0.1-0.1-0.1-0.2c0-0.1-0.1-0.2-0.2-0.3c-0.2-0.1-0.2-0.1-0.1-0.4
		c0-0.2,0.1-0.3,0.1-0.5c0-0.1,0-0.1,0.1-0.1c0.2-0.2,0.4-0.3,0.7-0.4c0.6-0.4,0.8-0.9,0.6-1.5c0,0,0,0,0,0c0,0,0,0,0,0
		c0.2,0.1,0.3,0.3,0.4,0.5c0.1,0.3,0.2,0.6,0.3,1c0,0,0,0,0,0c0-0.4-0.1-0.8-0.3-1.2c0.1,0,0.2,0.1,0.2,0.2
		C16.1,11.4,16.3,11.8,16.4,12.2z M15.8,10c0,0,0.1,0.1,0,0.2C15.8,10.1,15.8,10,15.8,10z M16.1,9.4C16.1,9.4,16.1,9.4,16.1,9.4
		C16.1,9.4,16.1,9.4,16.1,9.4C16.1,9.4,16.1,9.4,16.1,9.4C16.1,9.4,16.1,9.4,16.1,9.4z M16,4.3c-0.1,0-0.2-0.1-0.2-0.1
		c0.2,0,0.3,0,0.4,0C16.2,4.3,16.1,4.4,16,4.3z M16.5,9.5C16.5,9.6,16.4,9.5,16.5,9.5C16.4,9.5,16.4,9.5,16.5,9.5
		C16.4,9.5,16.5,9.5,16.5,9.5z M21.9,8.6c-0.1,0-0.2,0-0.3-0.1c-0.3-0.1-0.5-0.1-0.8-0.2c0.3,0,0.5,0,0.8,0.1
		C21.7,8.5,21.8,8.5,21.9,8.6z M21.6,8.3C21.6,8.3,21.6,8.3,21.6,8.3c0.1,0,0.1,0.1,0.2,0.2C21.7,8.4,21.7,8.4,21.6,8.3
		c-0.4,0-0.7-0.1-1.1-0.1C20.8,8,21.2,8,21.6,8.3z M18.9,8.1c0.2-0.1,0.2,0,0.2,0.1c0.1-0.1,0.1,0,0.4,0.2c-0.1,0.1-0.2,0.1-0.3,0
		C19.1,8.3,19,8.2,18.9,8.1z M19,8.5c-0.1,0-0.2,0-0.3,0C18.9,8.4,18.9,8.4,19,8.5z M19.1,8C19.1,8,19,8,19,7.9
		C19.1,7.9,19.1,8,19.1,8z M19,7.9c-0.1,0-0.1,0-0.1-0.1C18.9,7.9,19,7.9,19,7.9z M18.9,7.9c-0.1,0-0.1,0-0.1,0
		C18.8,7.8,18.9,7.8,18.9,7.9z M18.9,8c-0.1,0-0.2,0-0.3-0.1c-0.2-0.1-0.4-0.2-0.6-0.3C18.3,7.7,18.6,7.9,18.9,8z M18.8,8.4
		C18.8,8.4,18.8,8.4,18.8,8.4c-0.2,0.2-0.4,0.2-0.6,0.1c-0.4-0.2-0.7-0.4-1.1-0.6C17.8,8,18.3,8.1,18.8,8.4z M17.3,4.9
		c0,0,0.1,0,0.1,0C17.2,5,17.1,5,16.9,5C17,5,17.2,5,17.3,4.9z M17.6,8.7c-0.2,0-0.4-0.1-0.6-0.2C17.2,8.5,17.4,8.6,17.6,8.7z
		 M18,4.4c0,0.1-0.1,0.3-0.1,0.4c-0.1,0.1-0.2,0.2-0.2,0.3c0,0-0.1,0.1-0.1,0.1C17.7,4.9,17.8,4.6,18,4.4z M16.3,4.8
		c0.2,0,0.3,0,0.5,0C16.6,4.8,16.4,4.8,16.3,4.8z M16.5,4.9c0.2,0,0.4-0.1,0.6-0.2c0.2-0.1,0.4-0.2,0.6-0.3
		c-0.1,0.1-0.1,0.3-0.3,0.4c0,0-0.1,0-0.1,0c-0.2,0-0.3,0.1-0.5,0.1C16.7,5,16.6,5,16.5,4.9z M17,5.7c-0.1,0-0.2,0-0.3-0.1
		C16.8,5.6,16.9,5.7,17,5.7z M16.7,8.9c0.1,0,0.1,0,0.2,0.1C16.8,9,16.8,8.9,16.7,8.9z M16.9,9C17,9,17.1,9,17.2,9.1
		C17.1,9.1,17,9,16.9,9z M20.5,9.5c0.1,0.3,0.1,0.3-0.2,0.3c-0.4,0-0.8,0.1-1.2,0c-0.5,0-1-0.2-1.4-0.4c-0.2-0.1-0.4-0.2-0.6-0.3
		c0,0,0,0,0,0c0.2,0.1,0.4,0.2,0.5,0.3c0.4,0.2,0.7,0.2,1.2,0.2c-0.6-0.2-1.1-0.4-1.6-0.8c0.2,0,0.5,0,0.7,0c0.1,0,0.3,0.1,0.4,0.1
		C18.8,9,19,9,19.3,8.8c0.1,0,0.1,0,0.1,0C19.5,9,19.6,9,19.6,9.1c0,0,0,0,0,0c0-0.1-0.1-0.2-0.1-0.3C20,8.9,20.3,9.1,20.5,9.5z
		 M19.5,8.4c-0.1-0.1-0.2-0.2-0.3-0.3c0,0,0,0,0,0C19.4,8.2,19.5,8.3,19.5,8.4z"/>
</g>
</svg>
