<?xml version="1.0" encoding="utf-8"?>
<!-- Generator: Adobe Illustrator 24.3.0, SVG Export Plug-In . SVG Version: 6.00 Build 0)  -->
<svg version="1.1" id="ic_zpiv" xmlns="http://www.w3.org/2000/svg" xmlns:xlink="http://www.w3.org/1999/xlink" x="0px" y="0px"
	 viewBox="0 0 24 24" style="enable-background:new 0 0 24 24;" xml:space="preserve">
<style type="text/css">
	.st0{fill:#932178;}
	.st1{fill:none;}
</style>
<g id="Group_8933">
	<g id="Group_8932">
		<path id="Path_18926" class="st0" d="M12,2C6.5,2,2,6.5,2,12s4.5,10,10,10s10-4.5,10-10S17.5,2,12,2z M12,21.2
			c-5.1,0-9.2-4.1-9.2-9.2S6.9,2.8,12,2.8s9.2,4.1,9.2,9.2S17.1,21.2,12,21.2L12,21.2z"/>
		<path id="Path_18927" class="st0" d="M12,3.5c-4.7,0-8.5,3.8-8.5,8.5s3.8,8.5,8.5,8.5s8.5-3.8,8.5-8.5S16.7,3.5,12,3.5z M7.6,12.5
			l4.7-5.6H7.7V6h5.9v0.8L9,12.3l4.7,0v0.8H7.6V12.5z M16.5,15c0,0-0.1,0.1-0.1,0.1c0,0,0,0,0,0s0,0-0.1,0c-0.1,0-0.1,0.1-0.2,0.1
			c0,0-0.1,0-0.1,0c0,0-0.1,0-0.1,0c0,0-0.1,0-0.1,0c-0.3,0.1-0.7,0.2-1,0.2h-2.2V19h-0.9v-4.2h2.9c0.6,0,1.2-0.2,1.6-0.7
			c0.1-0.1,0.1-0.2,0.1-0.2c0.1-0.1,0.1-0.2,0.1-0.4c0.1-0.2,0.1-0.4,0.1-0.6c0-0.1,0-0.2,0-0.3c0-0.2-0.1-0.3-0.1-0.5
			c0,0,0-0.1,0-0.1c-0.1-0.2-0.2-0.4-0.4-0.6c-0.1-0.1-0.1-0.1-0.2-0.2c0,0,0,0-0.1,0c-0.1,0-0.1-0.1-0.2-0.1l-0.1,0
			c-0.1,0-0.2-0.1-0.3-0.1L15,11c-0.1,0-0.2,0-0.3,0h-0.1l-3,0l0.7-0.8h2.4c0.3,0,0.7,0.1,1,0.2c0,0,0.1,0,0.1,0
			c0.1,0,0.1,0.1,0.2,0.1c0.1,0,0.1,0.1,0.2,0.1c0,0,0.1,0,0.1,0.1c0.7,0.5,1.1,1.3,1.1,2.2C17.4,13.7,17.1,14.5,16.5,15z"/>
	</g>
</g>
<path id="Rectangle_4542" class="st1" d="M0,0h24v24H0V0z"/>
</svg>
