<?xml version="1.0" encoding="utf-8"?>
<!-- Generator: Adobe Illustrator 24.3.0, SVG Export Plug-In . SVG Version: 6.00 Build 0)  -->
<svg version="1.1" id="P_with_white" xmlns="http://www.w3.org/2000/svg" xmlns:xlink="http://www.w3.org/1999/xlink" x="0px"
	 y="0px" viewBox="0 0 49 60" style="enable-background:new 0 0 49 60;" xml:space="preserve">
<style type="text/css">
	.st0{fill:#932279;stroke:#932279;stroke-width:0.3182;stroke-miterlimit:10;}
	.st1{fill:#FFFFFF;stroke:#FFFFFF;stroke-width:0.3182;stroke-miterlimit:10;}
</style>
<g>
	<g id="XMLID_268_">
		<path id="Path_18985_91_" class="st0" d="M14.4,56.3H8.8V33.1h18.9c0.6,0,1.2,0,1.9,0c6.4-0.4,11.1-5.1,10.7-10.5c0-0.5,0-1,0-1.6
			c-0.6-5.3-6.1-9.2-12.4-8.7h-5.9l-13.4,0L7.9,8.2h20.6c0.6,0,1.3,0,1.9,0c9.1,0.4,16,6.9,15.6,14.5c0,0.5,0,1,0,1.5
			c-0.5,7.7-8.4,13.7-17.5,13.2H14.4V56.3z"/>
	</g>
	<g id="XMLID_275_">
		<path id="Path_18985_93_" class="st1" d="M3.8,16.9l25,0h1c1.1-0.1,2,0.6,2.1,1.5c0,0.1,0,0.2,0,0.3c0.1,0.9-0.7,1.7-1.8,1.8
			c-0.1,0-0.2,0-0.3,0H4.3L3.8,16.9z"/>
	</g>
	<g id="XMLID_274_">
		<path id="Path_18985_92_" class="st1" d="M15.7,25l13,0h1c1.1-0.1,2,0.6,2.1,1.5c0,0.1,0,0.2,0,0.3c0.1,0.9-0.7,1.7-1.8,1.8
			c-0.1,0-0.2,0-0.3,0l-13.5,0l0-0.2L15.7,25z"/>
	</g>
</g>
</svg>
