<?xml version="1.0" encoding="utf-8"?>
<!-- Generator: Adobe Illustrator 24.3.0, SVG Export Plug-In . SVG Version: 6.00 Build 0)  -->
<svg version="1.1" id="Layer_1" xmlns="http://www.w3.org/2000/svg" xmlns:xlink="http://www.w3.org/1999/xlink" x="0px" y="0px"
	 viewBox="0 0 49 60" style="enable-background:new 0 0 49 60;" xml:space="preserve">
<style type="text/css">
	.st0{fill:#FFFFFF;}
</style>
<path class="st0" d="M24.4,5.3C10.9,5.3,0,16.2,0,29.7s10.9,24.4,24.4,24.4s24.4-10.9,24.4-24.4S37.8,5.3,24.4,5.3z M24.4,51.6
	c-12.1,0-21.9-9.8-21.9-21.9S12.3,7.8,24.4,7.8s21.9,9.8,21.9,21.9S36.5,51.6,24.4,51.6z"/>
<g id="XMLID_78_">
	<path id="Path_18985_112_" class="st0" d="M17.6,50.2c-1.4-0.4-3.5-1.5-3.5-1.5v-18h11.8c0.4,0,0.8,0,1.2,0c4-0.2,6.9-3.2,6.7-6.5
		c0-0.3,0-0.7,0-1c-0.4-3.3-3.8-5.7-7.7-5.4h-3.7H3.2c0,0,1-1.7,1.8-2.7h21.5c0.4,0,0.8,0,1.2,0c5.7,0.2,10,4.3,9.7,9.1
		c0,0.3,0,0.6,0,0.9c-0.3,4.8-5.2,8.5-10.9,8.3h-8.8v16.8H17.6z"/>
</g>
<g id="XMLID_77_">
	<path id="Path_18985_111_" class="st0" d="M11,20.6h15.6h0.6c0.7-0.1,1.3,0.4,1.3,0.9c0,0.1,0,0.1,0,0.2c0.1,0.6-0.5,1.1-1.1,1.1
		c-0.1,0-0.1,0-0.2,0H11.3L11,20.6z"/>
</g>
<g id="XMLID_76_">
	<path id="Path_18985_110_" class="st0" d="M13.6,25.7h8.1h0.6c0.7-0.1,1.3,0.4,1.3,0.9c0,0.1,0,0.1,0,0.2c0.1,0.6-0.5,1.1-1.1,1.1
		c-0.1,0-0.1,0-0.2,0h-8.4v-0.1L13.6,25.7z"/>
</g>
<g>
	<path id="Path_18985_1_" class="st0" d="M34.8,38.3l-0.1,1.1l0,1.4c0,0.2,0,0.6,0,0.8c0.1,2.4,1.9,4.1,3.9,4.1c0.2,0,0.4,0,0.6,0
		c2-0.2,3.5-2.3,3.3-4.6l0,0.2l-0.4-10.3l0-0.1l0-2.4l-0.1,0l-3.9-0.3c0.6-1.3,0.5-1.6,0.5-1.6l5,0.2h0.1l-0.1,3.3l0,0.1l0.4,11l0,0
		c0,0.2,0,0.5,0,0.7c-0.2,3.4-2.7,6-5.6,5.8c-0.2,0-0.4,0-0.6,0c-2.9-0.2-5.1-3.2-4.9-6.7l0-0.8"/>
	<path id="Path_18985_107_" class="st0" d="M34.7,39.4l0.2-3.9l-0.9,1.1l-0.8,0.8l-0.1,3.2"/>
	<path id="Path_18985_105_" class="st0" d="M29.7,35.5l5.2-0.1c0,0-0.6,1-1.7,1.9l0-0.3l-4.1-0.1"/>
	<path id="Path_18985_106_" class="st0" d="M32.1,35.5l-1.1,0l-1.4,0c-0.2,0-0.6,0-0.8,0c-2.4-0.2-4.1-2-4-4c0-0.2,0-0.4,0-0.6
		c0.2-2,2.4-3.4,4.7-3.2l-0.2,0l2.2,0c0,0,0.3-0.5,0.4-0.7c0.1-0.3,0.1-0.8,0.1-0.8L29.2,26l0.1,0c-0.2,0-0.5,0-0.7,0
		c-3.4,0.1-6,2.6-6,5.4c0,0.2,0,0.4,0,0.6c0.2,2.9,3.1,5.2,6.6,5.1l0.8,0"/>
</g>
</svg>
