<?xml version="1.0" encoding="utf-8"?>
<!-- Generator: Adobe Illustrator 24.3.0, SVG Export Plug-In . SVG Version: 6.00 Build 0)  -->
<svg version="1.1" id="Layer_2_1_" xmlns="http://www.w3.org/2000/svg" xmlns:xlink="http://www.w3.org/1999/xlink" x="0px" y="0px"
	 viewBox="0 0 300 100" style="enable-background:new 0 0 300 100;" xml:space="preserve">
<style type="text/css">
	.st0{fill:#932178;stroke:#932178;stroke-linecap:round;stroke-linejoin:round;stroke-miterlimit:10;}
	.st1{fill:#932178;stroke:#932178;stroke-miterlimit:10;}
	.st2{fill:#932178;stroke:#932178;stroke-width:2;stroke-linecap:round;stroke-linejoin:round;stroke-miterlimit:10;}
	.st3{fill:#FFFFFF;stroke:#FFFFFF;stroke-miterlimit:10;}
	.st4{fill:#FFFFFF;stroke:#FFFFFF;stroke-width:2;stroke-linecap:round;stroke-linejoin:round;stroke-miterlimit:10;}
	.st5{fill:none;stroke:#1F2E41;stroke-width:4.2168;stroke-miterlimit:10;}
	.st6{fill:#983520;}
	.st7{fill:#9A9A9A;}
	.st8{fill:#1B1118;}
	.st9{fill:#932178;}
	.st10{fill:#FFFFFF;stroke:#FFFFFF;stroke-linecap:round;stroke-linejoin:round;stroke-miterlimit:10;}
</style>
<path id="XMLID_28_" class="st0" d="M248.9,72.3l-2,0c-0.5,0-0.9,0-1.4,0c-6.6-0.3-11.6-5-11.3-10.5c0-0.4,0-0.7,0-1.1
	c0.4-5.6,6-9.9,12.7-9.6h1.3h1.5c6.6-0.3,12.3,4,12.7,9.6c0,0.4,0,0.7,0,1.1c0.3,5.6-4.7,10.3-11.3,10.5c-0.5,0-0.9,0.1-1.4,0
	 M249.6,69.1l0.2,0l0.3,0c4.4,0.1,7.6-2.5,8-6.4c0-0.4,0-0.8,0-1.1c0.3-3.9-3.1-7.2-7.7-7.6c-0.4,0-0.2,0-0.6,0h-1.7h-0.7
	c-0.4,0-0.9,0-1.3,0c-4.6,0.5-8.1,3.7-7.7,7.6c0,0.4,0,0.8,0,1.1c0.4,3.8,4.5,6.5,9,6.4h0.5h1"/>
<path id="XMLID_26_" class="st1" d="M167.3,72.5h-13.2c-0.5,0-0.9,0-1.4,0c-6.6-0.3-11.6-5-11.3-10.5c0-0.4,0-0.7,0-1.1
	c0.4-5.6,6-9.9,12.7-9.6h13.2L167.3,72.5z M163.1,54.4h-8.4c-0.4,0-0.9,0-1.3,0c-4.6,0.3-8.1,3.7-7.7,7.6c0,0.4,0,0.8,0,1.1
	c0.4,3.8,4.4,6.7,9,6.3h4.3l4.3,0L163.1,54.4z"/>
<g id="XMLID_21_">
	<path id="XMLID_24_" class="st1" d="M230.3,51v21.1l-4.1,0V51"/>
	<path id="XMLID_22_" class="st1" d="M226.2,47.3v-1.9v-0.6v-0.9h4.1v0.9v0.6v1.9L226.2,47.3z"/>
</g>
<path id="Path_18985_18_" class="st2" d="M266.6,68.3v3.9h3V61.9c0-0.4,0-0.9,0-1.3c0.3-4.6,3.7-7.3,7.6-7c0.4,0,0.8,0,1.1,0
	c3.8,0.4,6.7,3.7,6.3,8.2v4.3l0,6.1h3.1V61.4c0-0.5,0-0.9,0-1.4c-0.2-5.9-5-9.3-10.5-9.3c-0.4,0-0.7,0-1.1,0
	c-5.6,0.4-9.9,4.1-9.6,10.7L266.6,68.3L266.6,68.3z"/>
<g id="XMLID_17_">
	<path id="Path_18985_11_" class="st1" d="M117.9,72.5H113V52.5h16.4c0.5,0,1.1,0,1.6,0c5.5-0.3,9.6-4.4,9.2-9.1c0-0.5,0-0.9,0-1.4
		c-0.5-4.6-5.3-8-10.8-7.5h-5.1l-11.6,0l-0.6-3.7H130c0.6,0,1.1,0,1.7,0c7.9,0.3,13.9,6,13.5,12.6c0,0.4,0,0.9,0,1.3
		c-0.4,6.7-7.2,11.9-15.2,11.5h-12.2V72.5z"/>
</g>
<g id="XMLID_16_">
	<path id="Path_18985_10_" class="st3" d="M108.7,38.4l21.7,0h0.9c0.9-0.1,1.8,0.5,1.8,1.3c0,0.1,0,0.2,0,0.2
		c0.1,0.8-0.6,1.5-1.6,1.6c-0.1,0-0.2,0-0.3,0h-22.1L108.7,38.4z"/>
</g>
<g id="XMLID_15_">
	<path id="Path_18985_9_" class="st3" d="M119,45.4l11.3,0h0.9c0.9-0.1,1.8,0.5,1.8,1.3c0,0.1,0,0.2,0,0.2c0.1,0.8-0.6,1.5-1.6,1.6
		c-0.1,0-0.2,0-0.3,0l-11.7,0l0-0.2L119,45.4z"/>
</g>
<g id="XMLID_2_">
	<path id="Path_18985_7_" class="st4" d="M193,50.4l-1.4-1.5l-1.9-1.9c-0.3-0.3-0.8-0.8-1.2-1.1c-3.5-3-8.2-3-10.9-0.1
		c-0.2,0.2-0.5,0.5-0.7,0.8c-2.4,3-1.6,7.9,1.9,10.8l-0.3-0.3l3.7,3.7l-5.9-1.5l0,0c-0.3-0.3-0.7-0.6-1-1
		c-4.4-4.8-4.6-11.7-0.6-15.5c0.2-0.3,0.5-0.5,0.8-0.7c4.2-3.7,11.3-2.7,15.7,2.2l1,1"/>
	<g id="XMLID_13_">
		<path id="Path_18985_6_" class="st4" d="M192.2,73.7l4.5,4.5V76l0-2.2l-3.3-3.3"/>
		<path id="Path_18985_5_" class="st4" d="M201.1,73.7l-4.5,4.5V76l0-2.2l3.3-3.3"/>
	</g>
	<path id="Path_18985_4_" class="st4" d="M200.4,50.4l1.4-1.5l1.9-1.9c0.3-0.3,0.8-0.8,1.2-1.1c3.5-3,8.2-3,10.9-0.1
		c0.2,0.2,0.5,0.5,0.7,0.8c2.4,3,1.6,7.9-1.9,10.8l0.3-0.3l-3.7,3.7l5.9-1.5l0,0c0.3-0.3,0.7-0.6,1-1c4.4-4.8,4.6-11.7,0.6-15.5
		c-0.2-0.3-0.5-0.5-0.8-0.7c-4.2-3.7-11.3-2.7-15.7,2.2l-1,1"/>
	<path id="Path_18985_3_" class="st0" d="M222.5,67.6L221,69l-2,1.7c-0.3,0.3-0.9,0.7-1.2,0.9c-3.7,2.7-8.4,2.2-10.8-0.8
		c-0.2-0.2-0.5-0.6-0.7-0.9c-2.1-3.2-0.9-8,2.8-10.6l-0.4,0.3l4-3.4l-2-2.3l-4,3.3l0,0c-0.4,0.3-0.7,0.6-1.1,0.9
		c-4.9,4.4-5.6,11.2-1.9,15.4c0.2,0.3,0.5,0.5,0.7,0.8c3.9,4.1,11,3.7,15.9-0.8l1.1-0.9"/>
	<path id="Path_18985_2_" class="st0" d="M170.7,67.6l1.5,1.4l2,1.7c0.3,0.3,0.9,0.7,1.2,0.9c3.7,2.7,8.4,2.2,10.8-0.8
		c0.2-0.2,0.5-0.6,0.7-0.9c2.1-3.2,0.9-8-2.8-10.6l0.4,0.3l-4-3.4l2-2.4l3.9,3.3l0,0c0.4,0.3,0.7,0.6,1.1,0.9
		c4.9,4.4,5.6,11.2,1.9,15.4c-0.2,0.3-0.5,0.5-0.7,0.8c-3.9,4.1-11,3.7-15.9-0.8l-1.1-0.9"/>
</g>
<g id="XMLID_73_">
	<circle id="XMLID_295_" class="st5" cx="51" cy="52" r="38.9"/>
	<circle id="XMLID_294_" class="st6" cx="51" cy="52" r="35"/>
	<circle id="XMLID_293_" class="st7" cx="51" cy="52" r="38.9"/>
	<g id="XMLID_292_">
		<circle class="st8" cx="51" cy="52" r="34"/>
		<path class="st7" d="M51,19c18.2,0,33,14.8,33,33S69.2,85,51,85s-33-14.8-33-33S32.9,19,51,19 M51,17c-19.3,0-35,15.7-35,35
			s15.7,35,35,35s35-15.7,35-35S70.3,17,51,17L51,17z"/>
	</g>
</g>
<g id="XMLID_78_">
	<path id="Path_18985_112_" class="st9" d="M40.2,84.8c-2.3-0.7-5.5-2.3-5.5-2.3V53.7h18.8c0.6,0,1.2,0,1.9,0
		c6.3-0.4,11.1-5.1,10.6-10.4c0-0.5,0-1,0-1.6c-0.6-5.3-6.1-9.2-12.4-8.7h-5.9l-30.7,0c0,0,1.5-2.7,2.8-4.3h34.3c0.6,0,1.3,0,1.9,0
		c9,0.4,16,6.8,15.5,14.5c0,0.5,0,1,0,1.5c-0.5,7.7-8.3,13.6-17.4,13.2h-14V84.8z"/>
</g>
<g id="XMLID_77_">
	<path id="Path_18985_111_" class="st9" d="M29.6,37.5l24.9,0h1c1.1-0.1,2,0.6,2.1,1.5c0,0.1,0,0.2,0,0.3c0.1,0.9-0.7,1.7-1.8,1.8
		c-0.1,0-0.2,0-0.3,0H30.2L29.6,37.5z"/>
</g>
<g id="XMLID_76_">
	<path id="Path_18985_110_" class="st9" d="M33.8,45.6l13,0h1c1.1-0.1,2,0.6,2.1,1.5c0,0.1,0,0.2,0,0.3c0.1,0.9-0.7,1.7-1.8,1.8
		c-0.1,0-0.2,0-0.3,0l-13.5,0l0-0.2L33.8,45.6z"/>
</g>
<g id="XMLID_74_">
	<path id="Path_18985_109_" class="st10" d="M67.7,65.6l-0.1,1.7l0,2.2c0,0.4,0,0.9,0,1.3c0.2,3.9,3,6.6,6.3,6.6c0.3,0,0.6,0,0.9,0
		c3.2-0.3,5.6-3.7,5.4-7.5l0,0.4l-0.7-16.7l2.6-1.1l0.7,17.8l0,0c0,0.4,0,0.8,0,1.2c-0.3,5.5-4.3,9.6-8.9,9.4c-0.3,0-0.6,0-0.9-0.1
		c-4.7-0.4-8.2-5.2-7.9-10.7l0-1.2"/>
	<g id="XMLID_75_">
		<path id="Path_18985_108_" class="st10" d="M82.1,52.5l0.1-5.3l-1.3,1.3l-1.3,1.3l0,3.9"/>
		<path id="Path_18985_104_" class="st10" d="M73.2,49.3l6.4,0.5l1.3-1.3l1.3-1.3L74,46.7C74,46.7,74.2,47.2,73.2,49.3z"/>
	</g>
	<g id="XMLID_80_">
		<path id="Path_18985_107_" class="st10" d="M67.6,67.3l0.4-6.2l-1.4,1.7l-1.3,1.3l-0.1,5.1"/>
		<path id="Path_18985_105_" class="st10" d="M59.6,61.2l8.4-0.1c0,0-1,1.7-2.8,3.1l0-0.4l-6.5-0.1"/>
	</g>
	<path id="Path_18985_106_" class="st10" d="M63.4,61.2l-1.7,0l-2.2,0c-0.4,0-0.9,0-1.3-0.1c-3.8-0.3-6.5-3.2-6.4-6.4
		c0-0.3,0-0.6,0.1-0.9c0.4-3.2,3.8-5.5,7.6-5.2l-0.4,0l3.5,0c0,0,0.5-0.7,0.7-1.2c0.2-0.4,0.2-1.2,0.2-1.2l-4.5-0.2l0.2,0
		c-0.4,0-0.8,0-1.2,0c-5.5,0.2-9.7,4.1-9.6,8.7c0,0.3,0,0.6,0,0.9c0.3,4.7,5,8.3,10.5,8.1l1.2,0"/>
</g>
</svg>
